<?xml version="1.0" encoding="utf-8"?>
<!-- Generator: Adobe Illustrator 19.2.1, SVG Export Plug-In . SVG Version: 6.00 Build 0)  -->
<svg version="1.1" id="Layer_1" xmlns="http://www.w3.org/2000/svg" xmlns:xlink="http://www.w3.org/1999/xlink" x="0px" y="0px"
	 viewBox="0 0 850 850" style="enable-background:new 0 0 850 850;" xml:space="preserve">
<style type="text/css">
	.st0{fill:#020404;}
	.st1{fill:#191C1C;}
	.st2{clip-path:url(#SVGID_2_);}
	.st3{clip-path:url(#SVGID_4_);}
	.st4{clip-path:url(#SVGID_6_);}
	.st5{clip-path:url(#SVGID_8_);}
	.st6{fill:#27475B;}
	.st7{fill:#193645;}
	.st8{fill:#FFFFFF;}
	.st9{fill:#020404;stroke:#1C3649;stroke-miterlimit:10;}
	.st10{fill:none;stroke:#191C1C;stroke-width:3;stroke-miterlimit:10;}
	.st11{fill:none;stroke:#191C1C;stroke-width:2;stroke-miterlimit:10;}
	.st12{fill:#020404;stroke:#191C1C;stroke-width:3;stroke-miterlimit:10;}
	.st13{clip-path:url(#SVGID_12_);}
	.st14{fill:#152935;stroke:#191C1C;stroke-width:3;stroke-miterlimit:10;}
	.st15{fill:#020404;stroke:#191C1C;stroke-width:2;stroke-miterlimit:10;}
	.st16{fill:#152935;stroke:#191C1C;stroke-width:2;stroke-miterlimit:10;}
	.st17{fill:none;}
	.st18{clip-path:url(#SVGID_14_);}
	.st19{clip-path:url(#SVGID_16_);}
	.st20{clip-path:url(#SVGID_18_);}
	.st21{clip-path:url(#SVGID_20_);}
	.st22{fill:none;stroke:#020404;stroke-width:2;stroke-miterlimit:10;}
	.st23{clip-path:url(#SVGID_22_);}
	.st24{clip-path:url(#SVGID_24_);}
	.st25{clip-path:url(#SVGID_26_);}
	.st26{fill:#162935;}
	.st27{fill:#323C3C;}
	.st28{fill:#1C3649;}
	.st29{clip-path:url(#SVGID_28_);}
	.st30{fill:#0F1212;}
	.st31{clip-path:url(#SVGID_30_);}
	.st32{clip-path:url(#SVGID_32_);}
	.st33{clip-path:url(#SVGID_34_);}
	.st34{clip-path:url(#SVGID_36_);}
	.st35{clip-path:url(#SVGID_38_);}
	.st36{clip-path:url(#SVGID_40_);}
	.st37{clip-path:url(#SVGID_42_);}
	.st38{clip-path:url(#SVGID_44_);}
	.st39{clip-path:url(#SVGID_46_);}
	.st40{clip-path:url(#SVGID_48_);fill:none;stroke:#191C1C;stroke-miterlimit:10;}
	.st41{fill:#020404;stroke:#191C1C;stroke-miterlimit:10;}
	.st42{fill:#020404;stroke:#323C3C;stroke-miterlimit:10;}
	.st43{fill:none;stroke:#323C3C;stroke-miterlimit:10;}
	.st44{fill:#020404;stroke:#191C1C;stroke-width:5;stroke-miterlimit:10;}
	.st45{clip-path:url(#SVGID_50_);}
	.st46{clip-path:url(#SVGID_52_);fill:none;stroke:#191C1C;stroke-miterlimit:10;}
	.st47{clip-path:url(#SVGID_54_);fill:none;stroke:#191C1C;stroke-miterlimit:10;}
	.st48{clip-path:url(#SVGID_56_);}
	.st49{clip-path:url(#SVGID_58_);}
	.st50{fill:#121212;}
	.st51{fill:#ECECEC;}
	.st52{fill:#0D1111;}
	.st53{fill:#00B4A0;}
	.st54{fill:none;stroke:#121212;stroke-width:2;stroke-miterlimit:10;}
	.st55{fill:#E0E0E0;}
	.st56{fill:none;stroke:#121212;stroke-width:3;stroke-miterlimit:10;}
	.st57{fill:none;stroke:#00B29E;stroke-width:2;stroke-miterlimit:10;}
	.st58{opacity:0.5;fill:none;stroke:#00B29E;stroke-width:2;stroke-miterlimit:10;}
	.st59{fill:none;stroke:#00B4A0;stroke-width:3;stroke-miterlimit:10;}
	.st60{fill:none;stroke:#121212;stroke-miterlimit:10;}
	.st61{fill:none;stroke:#00B4A0;stroke-miterlimit:10;}
	.st62{fill:#E6E6E6;}
	.st63{fill:#FF7832;}
	.st64{fill:#323232;}
	.st65{fill:#414141;}
	.st66{fill-rule:evenodd;clip-rule:evenodd;fill:#FFFFFF;}
	.st67{fill-rule:evenodd;clip-rule:evenodd;fill:#EAEAEA;}
	.st68{fill:#FF8C40;}
	.st69{clip-path:url(#SVGID_60_);}
	.st70{clip-path:url(#SVGID_62_);fill:#DB2780;}
	.st71{clip-path:url(#SVGID_62_);}
	.st72{fill:#464646;}
	.st73{clip-path:url(#SVGID_62_);fill:#E0E0E0;}
	.st74{clip-path:url(#SVGID_62_);fill:none;stroke:#464646;stroke-miterlimit:10;}
	.st75{opacity:0.5;clip-path:url(#SVGID_64_);}
	.st76{opacity:0.25;clip-path:url(#SVGID_70_);}
	.st77{clip-path:url(#SVGID_113_);}
	.st78{clip-path:url(#SVGID_149_);}
	.st79{clip-path:url(#SVGID_153_);}
	.st80{clip-path:url(#SVGID_157_);}
	.st81{clip-path:url(#SVGID_161_);}
	.st82{clip-path:url(#SVGID_165_);}
	.st83{clip-path:url(#SVGID_169_);}
	.st84{clip-path:url(#SVGID_196_);}
	.st85{clip-path:url(#SVGID_197_);}
	.st86{clip-path:url(#SVGID_202_);}
	.st87{clip-path:url(#SVGID_203_);}
	.st88{clip-path:url(#SVGID_208_);}
	.st89{clip-path:url(#SVGID_209_);}
</style>
<g>
	<g>
		<g>
			
				<ellipse transform="matrix(2.232112e-02 -0.9998 0.9998 2.232112e-02 -243.6609 1053.9927)" class="st62" cx="417.1" cy="651.6" rx="18.1" ry="18.1"/>
		</g>
		<g>
			<polygon class="st62" points="366.8,667.5 418.1,669.6 415.9,633.7 368.4,635.4 			"/>
		</g>
		<g>
			
				<ellipse transform="matrix(0.9994 -3.595093e-02 3.595093e-02 0.9994 -23.1955 13.8109)" class="st62" cx="372.4" cy="651.9" rx="17.1" ry="17.1"/>
		</g>
		<g>
			<g>
				<path class="st63" d="M380,671.8c-10.8,0-19.6-8.8-19.6-19.6s8.8-19.6,19.6-19.6s19.6,8.8,19.6,19.6S390.9,671.8,380,671.8z"/>
			</g>
			<g>
				<g>
					<path class="st63" d="M380,633.5c10.3,0,18.6,8.4,18.6,18.6s-8.4,18.6-18.6,18.6c-10.3,0-18.6-8.4-18.6-18.6
						S369.8,633.5,380,633.5 M380,631.6c-11.4,0-20.6,9.2-20.6,20.6s9.2,20.6,20.6,20.6c11.4,0,20.6-9.2,20.6-20.6
						S391.4,631.6,380,631.6L380,631.6z"/>
				</g>
			</g>
		</g>
		<g>
			<g>
				<path class="st8" d="M372.2,847.2l0.4-30.8l-25.1-40.7l-10.1-33.2c-6.1-26.7-6.1-26.7-6.1-26.9c-0.1-2,0.6-3.9,1.9-5.3
					c1.4-1.5,3.6-2.3,6-2.3c1.7,0,3.5,0.4,5.2,1.2c6.2,2.8,10.3,10.2,12.6,15.9c2.4,5.9,9.6,21.2,12.3,26.9l4.3-4.2l-3-79.6
					l0.3-18.2c-0.1-1.6-0.1-2.3,0.6-3.9c1.8-4.1,5.2-6.5,9.7-6.7l0.4,0c5.1,0,7.6,3.8,9.1,6.7c0.5,0.7,0.5,1.2,0.6,3.3L393,668
					l2.3,60.9l3.3-0.1l-1.1-30.1c-0.2-6.1,4.9-11.5,11.3-11.8l0.4,0c6.2,0,11.5,4.9,11.7,10.9l1.3,34.6l2.2-0.1
					c-0.2-5-0.7-19.5-0.7-19.7c-0.3-6.8,2.5-14.9,11.1-15.2l0.5,0c8.3,0,11.5,7.4,11.8,14.3c0,0.3,0.7,19.4,1,25.3l3.1-0.1
					c-0.2-4.5-0.6-16.4-0.6-16.6c-0.2-6.6,4-11.5,10.1-11.8l0.4,0c5.7,0,10,4.6,10.2,11c0,0.1,1.6,38.7,1.6,38.7l-11.2,42.6
					l-0.3,47.4L372.2,847.2z"/>
			</g>
			<g>
				<path class="st64" d="M381.7,641c3.8,0,6,2.6,7.6,5.8c0.3,0.5,0.3,0.1,0.4,2.6l1.6,18.7l2.3,62.5l6.7-0.3l-1.2-31.8
					c-0.2-5.4,4.3-9.8,9.7-10c0.1,0,0.2,0,0.4,0c5.2,0,9.8,4.1,10,9.3l1.4,36.2l5.6-0.2c0,0-0.8-21.3-0.8-21.4
					c-0.2-5.4,1.7-13.2,9.5-13.5c0.2,0,0.3,0,0.5,0c7.6,0,9.9,7.4,10.1,12.7c0,0.1,1,27,1,27l6.4-0.2c0,0-0.7-18.2-0.7-18.3
					c-0.2-5.4,3.1-9.8,8.5-10c0.1,0,0.2,0,0.3,0c5,0,8.4,4.1,8.6,9.4c0,0.1,1.6,38.4,1.6,38.4L460,800.4l-0.3,45.9l-85.8-0.8
					l0.3-29.6L349,775l-10-33c0,0-6-26.4-6-26.4c-0.1-3.8,2.7-5.9,6.3-5.9c1.4,0,3,0.3,4.5,1c5,2.3,8.9,8.1,11.7,15.1
					c3,7.4,13.3,29.1,13.3,29.1l6.5-6.4l-3-80.4l0.3-18.1c-0.1-1.5-0.1-2,0.5-3.3c1.5-3.4,4.2-5.5,8.2-5.7
					C381.5,641,381.6,641,381.7,641 M381.7,637.7c-0.1,0-0.3,0-0.4,0c-5.2,0.2-9.1,2.9-11.2,7.7c-0.8,1.9-0.8,2.9-0.8,4.6L369,668
					l0,0.1l0,0.1l3,78.9l-2.1,2.1c-3.1-6.7-9.1-19.5-11.2-24.7c-3.5-8.6-8.2-14.4-13.4-16.8c-1.9-0.9-4-1.3-5.9-1.3
					c-2.9,0-5.5,1-7.2,2.8c-1.6,1.7-2.5,4-2.4,6.5c0,0.3,0,0.3,6.1,27l0,0.1l0,0.1l10,33l0.1,0.4l0.2,0.4l24.7,40.1l-0.3,28.6l0,3.4
					l3.4,0l85.8,0.8l3.4,0l0-3.4l0.3-45.5l11.1-42.1l0.1-0.5l0-0.5c0,0-1.6-38.1-1.6-38.4c-0.3-7.3-5.3-12.6-11.9-12.6
					c-0.2,0-0.3,0-0.5,0c-6.1,0.2-10.5,4.4-11.5,10.4c-0.1-3.2-0.2-5.5-0.2-5.6c-0.4-9.7-5.6-15.9-13.4-15.9c-0.2,0-0.4,0-0.6,0
					c-6.5,0.2-10.3,4.5-11.9,9.8l-0.3-7.8c-0.3-6.9-6.3-12.5-13.4-12.5c-0.2,0-0.3,0-0.5,0c-3.5,0.1-6.7,1.6-9.2,4.1
					c-2.5,2.6-3.8,5.9-3.7,9.3l-1.1-30.6l0-0.1l0-0.1l-1.6-18.6c-0.1-2.1-0.1-2.9-0.8-4C391.4,643.4,388.4,637.7,381.7,637.7
					L381.7,637.7z"/>
			</g>
		</g>
	</g>
	<g>
		<g>
			<ellipse transform="matrix(0.475 -0.88 0.88 0.475 -56.9114 508.5457)" class="st62" cx="397.7" cy="302" rx="13.7" ry="13.7"/>
		</g>
		<g>
			<polygon class="st62" points="399.7,338.3 411.7,306.5 387,294.8 368.2,326.1 			"/>
		</g>
		<g>
			<g>
				<path class="st63" d="M383.1,349.8c-2.8,0-5.6-0.7-8-2c-4-2.1-6.9-5.7-8.2-10c-1.3-4.3-0.8-8.9,1.3-12.9c3-5.5,8.7-8.9,14.9-8.9
					c2.8,0,5.6,0.7,8,2c4,2.1,6.9,5.7,8.2,10c1.3,4.3,0.8,8.9-1.3,12.9C395,346.4,389.3,349.8,383.1,349.8z"/>
			</g>
			<g>
				<g>
					<path class="st63" d="M383.1,316.8L383.1,316.8c2.6,0,5.3,0.7,7.6,1.9c3.8,2,6.5,5.4,7.8,9.5c1.2,4.1,0.8,8.5-1.3,12.2
						c-2.8,5.2-8.2,8.4-14.1,8.4c-2.6,0-5.3-0.7-7.6-1.9c-3.8-2-6.5-5.4-7.8-9.5c-1.2-4.1-0.8-8.5,1.3-12.2
						C371.8,320.1,377.2,316.8,383.1,316.8 M383.1,315.1c-6.3,0-12.4,3.4-15.6,9.3c-4.7,8.6-1.4,19.4,7.2,24.1
						c2.7,1.4,5.6,2.1,8.4,2.1c6.3,0,12.4-3.4,15.6-9.3c4.7-8.6,1.4-19.4-7.2-24.1C388.8,315.8,386,315.1,383.1,315.1L383.1,315.1z"
						/>
				</g>
			</g>
		</g>
		<g>
			
				<ellipse transform="matrix(0.5014 -0.8652 0.8652 0.5014 -197.0777 501.1123)" class="st62" cx="336.3" cy="421.6" rx="13.7" ry="13.7"/>
		</g>
		<g>
			<polygon class="st62" points="338.9,383.4 325.1,415.8 349.1,429.1 371.2,392.8 			"/>
		</g>
		<g>
			<g>
				<path class="st63" d="M352.7,408c-3.5,0-6.9-1.1-9.8-3.2c-3.5-2.6-5.8-6.4-6.4-10.8c-0.6-4.3,0.5-8.6,3.1-12.1
					c3.1-4.2,7.9-6.6,13.1-6.6c3.5,0,6.9,1.1,9.8,3.2c7.2,5.4,8.7,15.7,3.4,22.9C362.8,405.6,358,408,352.7,408z"/>
			</g>
			<g>
				<g>
					<path class="st63" d="M352.8,376.1L352.8,376.1c3.4,0,6.6,1.1,9.3,3.1c3.3,2.5,5.5,6.1,6.1,10.2c0.6,4.1-0.4,8.2-2.9,11.5
						c-3,4-7.5,6.3-12.5,6.3c-3.4,0-6.6-1.1-9.3-3.1c-6.9-5.1-8.3-14.9-3.2-21.8C343.3,378.4,347.8,376.1,352.8,376.1 M352.8,374.4
						c-5.2,0-10.4,2.4-13.8,6.9c-5.7,7.6-4.1,18.4,3.5,24.1c3.1,2.3,6.7,3.4,10.3,3.4c5.2,0,10.4-2.4,13.8-6.9
						c5.7-7.6,4.1-18.4-3.5-24.1C359.9,375.5,356.3,374.4,352.8,374.4L352.8,374.4z"/>
				</g>
			</g>
		</g>
		<g>
			<g>
				<path class="st8" d="M378.1,527.3l-0.6-32.9L354,452.7l-8.9-33.8l0.3-26.9c0-5.2,3.8-9.5,8.5-9.5c1.3,0,2.6,0.3,3.9,1
					c5.2,2.6,5.9,17.7,5.9,23l12.8,23.5l4.7-4.2v-54l-6.9-36.2c-0.5-0.8-0.5-1.9-0.5-2.6c-0.4-4,2.5-8.7,6.4-10.2
					c1.1-0.5,2.9-1.2,5.1-1.2c3.2,0,6.1,1.5,8.5,4.3l0.1,0.2l0.1,0.2c0.2,0.5,1.1,2.6,1.1,2.6l0,0.1l8.4,35.4v43.3h3.3v-30.1
					c0-6.2,5.4-11.4,11.7-11.4c6.3,0,11.7,5.2,11.7,11.4v34.6h2.2v-19.7c0-6.8,3.1-14.8,11.7-14.8c8.7,0,11.7,7.6,11.7,14.8v25.3
					h3.1l0-13.6c0-6.5,4.3-11,10.5-11c6.4,0,10.2,6.1,10.2,12.1c0,0.3,0.2,34.5,0.2,34.5l-12.8,42.1v45.5H378.1z"/>
			</g>
			<g>
				<path class="st64" d="M385.3,323.2c2.2,0,4.8,0.9,7.3,3.7c0.2,0.5,1,2.5,1,2.5l8.3,35.1v44.8h6.7v-31.8c0-5.4,4.7-9.7,10.1-9.7
					c5.4,0,10,4.3,10,9.7v36.3h5.6c0,0,0-21.3,0-21.4c0-5.4,2.2-13.1,10-13.1c8,0,10.1,7.7,10.1,13.1c0,0.1,0,27,0,27h6.4
					c0,0,0-15.2,0-15.3c0-5.4,3.5-9.3,8.8-9.3c5.2,0,8.6,5,8.6,10.4c0,0.1,0.2,34.3,0.2,34.3l-12.8,42.1v44h-85.7l-0.6-31.7
					L355.5,452l-8.7-33.4c0,0,0.3-26.6,0.3-26.6c0-4.3,3-7.8,6.9-7.8c1,0,2.1,0.2,3.2,0.8c4.9,2.4,5,21.9,5,21.9l14,25.7l6.8-6.1
					v-54.9l-7-36.8l0,0c-0.3,0-0.4-1.9-0.4-1.9c-0.4-3.5,2.3-7.4,5.3-8.6C381.9,323.8,383.5,323.2,385.3,323.2 M385.3,319.9
					c-1.8,0-3.7,0.4-5.8,1.3c-4.5,1.7-7.8,7.1-7.4,11.9c0.1,1.2,0.3,2.1,0.6,2.9l6.9,35.9V425l-2.5,2.3L365.5,406
					c-0.1-8.1-1.2-21.2-6.9-24c-1.5-0.8-3.1-1.1-4.7-1.1c-5.6,0-10.2,5-10.2,11.2c0,0.2-0.3,26.6-0.3,26.6l0,0.4l0.1,0.4l8.7,33.4
					l0.1,0.4l0.2,0.4l23.3,41.1l0.6,30.9l0.1,3.3h3.3h85.7h3.3v-3.3v-43.5l12.6-41.6l0.1-0.5l0-0.5c0,0-0.2-33.9-0.2-34.3
					c0-7.7-5.2-13.8-11.9-13.8c-6.1,0-10.7,3.9-11.9,9.7v-8.7c0-10-5.3-16.4-13.4-16.4c-6.5,0-10.5,4.1-12.3,9.4v-7.8
					c0-7.1-6.1-13-13.4-13c-7.3,0-13.4,6-13.4,13v-13v-0.4l-0.1-0.4l-8.3-35.1l-0.1-0.2l-0.1-0.2c-0.3-0.6-0.9-2.2-1.1-2.7l-0.2-0.4
					l-0.3-0.3C392.3,321.6,388.9,319.9,385.3,319.9L385.3,319.9z"/>
			</g>
		</g>
	</g>
	<g>
		<g>
			<g>
				<path class="st63" d="M384.3,7.8c10.9,0,19.7,8.9,19.7,19.7s-8.9,19.7-19.7,19.7c-10.9,0-19.7-8.9-19.7-19.7
					S373.4,7.8,384.3,7.8 M384.3,5.6c-12.1,0-22,9.8-22,22s9.8,22,22,22c12.1,0,22-9.8,22-22S396.4,5.6,384.3,5.6L384.3,5.6z"/>
			</g>
		</g>
		<g>
			<g>
				<path class="st62" d="M384.5,1.7c14.1,0,25.6,11.5,25.6,25.6s-11.5,25.6-25.6,25.6c-14.1,0-25.6-11.5-25.6-25.6
					S370.4,1.7,384.5,1.7 M384.5,0c-15.1,0-27.3,12.2-27.3,27.3s12.2,27.3,27.3,27.3c15.1,0,27.3-12.2,27.3-27.3S399.6,0,384.5,0
					L384.5,0z"/>
			</g>
		</g>
		<g>
			<g>
				<path class="st8" d="M370.2,226.6l-0.6-32.9L346,152l-8.8-33.6c-5.1-26.9-5.1-26.9-5.1-27.1c0-4.4,3.1-7.3,7.8-7.3
					c1.8,0,3.8,0.5,5.6,1.4c6.1,3,9.9,10.6,12,16.4c2.2,6,8.8,21.6,11.2,27.3l4.5-4.1V28.3c0-2,0.3-3.6,1-5
					c1.9-4.1,5.9-6.6,10.4-6.6c4.5,0,8.4,2.5,10.4,6.6c0.3,0.5,0.6,1.6,0.6,5V107h3.3V76.9c0-6.2,5.4-11.4,11.7-11.4
					c6.4,0,11.7,5.2,11.7,11.4v34.6h2.2V91.7c0-6.8,3.1-14.8,11.7-14.8c8.7,0,11.7,7.6,11.7,14.8V117h3.1l0-16.6
					c0-6.6,4.4-11.4,10.5-11.4c5.9,0,10.2,4.8,10.2,11.4c0,0.3,0.2,38.7,0.2,38.7l-12.8,42.1v45.5H370.2z"/>
			</g>
			<g>
				<path class="st64" d="M384.7,18.3c4,0,7.3,2.3,8.8,5.7c0.2,0.5,0.4,1.8,0.4,4.3v80.4h6.7V76.9c0-5.4,4.7-9.7,10.1-9.7
					c5.4,0,10,4.3,10,9.7v36.3h5.6c0,0,0-21.3,0-21.4c0-5.4,2.2-13.1,10-13.1c8,0,10.1,7.7,10.1,13.1c0,0.1,0,27,0,27h6.4
					c0,0,0-18.2,0-18.3c0-5.4,3.5-9.7,8.8-9.7c5.2,0,8.6,4.3,8.6,9.7c0,0.1,0.2,38.4,0.2,38.4l-12.8,42.1v44h-85.7l-0.6-31.7
					l-23.7-41.9l-8.7-33.4c0,0-5-26.6-5-26.6c0-3.7,2.7-5.7,6.1-5.7c1.5,0,3.2,0.4,4.8,1.2c4.9,2.4,8.6,8.4,11.2,15.5
					c2.7,7.5,12.2,29.6,12.2,29.6l6.8-6.1V28.3c0-1.5,0.2-3,0.8-4.3C377.3,20.6,380.7,18.3,384.7,18.3 M384.7,15
					c-5.2,0-9.7,2.9-12,7.6c-0.8,1.6-1.1,3.4-1.1,5.7v96l-2.2,2c-2.9-6.8-8.4-19.8-10.3-25.1c-3.2-8.7-7.6-14.7-12.8-17.3
					c-2-1-4.2-1.6-6.3-1.6c-5.6,0-9.5,3.7-9.5,9c0,0.3,0,0.3,5.1,27.3l0,0.1l0,0.1l8.7,33.4l0.1,0.4l0.2,0.4l23.3,41.1l0.6,30.9
					l0.1,3.3h3.3h85.7h3.3v-3.3v-43.5l12.6-41.6l0.1-0.5l0-0.5c0,0-0.2-38.1-0.2-38.4c0-7.6-5-13.1-11.9-13.1c-6.1,0-10.7,4-11.9,10
					v-5.6c0-10-5.3-16.4-13.4-16.4c-6.5,0-10.5,4.1-12.3,9.4v-7.8c0-7.1-6.1-13-13.4-13c-7.3,0-13.4,6-13.4,13V28.3
					c0-3.7-0.4-4.9-0.7-5.7C394.4,17.9,389.8,15,384.7,15L384.7,15z"/>
			</g>
		</g>
	</g>
</g>
<g>
	<g>
		<path class="st62" d="M76.2,605.5c0,0,0,0.3,0,0.2c0.1-10-7.9-17.9-17.9-18c-10-0.1-18.2,7.7-18.4,17.7c0,0.5,0,1.2,0,1.2h0
			l2.3,50l32.1,0.8L76.2,605.5L76.2,605.5z"/>
		<g>
			
				<ellipse transform="matrix(0.9979 -6.510248e-02 6.510248e-02 0.9979 -42.3657 5.203)" class="st62" cx="58.7" cy="652.7" rx="17.1" ry="17.1"/>
		</g>
		<g>
			<g>
				<path class="st63" d="M58.7,664.7c-10.7,0-19.3-8.4-19.6-19c-0.3-10.8,8.2-19.9,19-20.2l0.6,0c10.7,0,19.3,8.4,19.6,19
					c0.2,5.2-1.7,10.2-5.3,14c-3.6,3.8-8.5,6-13.7,6.1L58.7,664.7z"/>
			</g>
			<g>
				<g>
					<path class="st63" d="M58.7,626.4c10.1,0,18.3,7.9,18.6,18.1c0.3,10.3-7.8,18.9-18.1,19.2c-0.2,0-0.4,0-0.6,0
						c-10.1,0-18.3-7.9-18.6-18.1c-0.3-10.3,7.8-18.9,18.1-19.2C58.4,626.4,58.5,626.4,58.7,626.4 M58.7,624.5c-0.2,0-0.4,0-0.6,0
						c-11.4,0.3-20.3,9.8-20,21.2c0.3,11.2,9.5,20,20.6,20c0.2,0,0.4,0,0.6,0c11.4-0.3,20.3-9.8,20-21.2
						C79,633.3,69.8,624.5,58.7,624.5L58.7,624.5z"/>
				</g>
			</g>
		</g>
		<g>
			<g>
				<path class="st8" d="M45.2,848.1l-0.6-32.9l-23.6-41.7l-8.8-33.6C7.2,713,7.2,713,7.2,712.8c0-4.4,3.1-7.3,7.8-7.3
					c1.8,0,3.8,0.5,5.6,1.4c6.1,3,9.9,10.6,12,16.4c2.2,6,8.8,21.6,11.2,27.3l4.5-4.1v-79.7l1-18.2c0-1.6,0-2.3,0.8-3.9
					c1.8-3.9,5.2-5.9,9.9-5.9c0,0,0,0,0,0c5.1,0,7.6,4.1,8.3,6.6c0.5,0.8,0.6,2.2,0.6,3.4l1.7,18.6l0,61H74v-30.1
					c0-6.2,5.4-11.4,11.7-11.4c6.3,0,11.7,5.2,11.7,11.4v34.6h2.2v-19.7c0-6.8,3.1-14.8,11.7-14.8c8.7,0,11.7,7.6,11.7,14.8v25.3
					h3.1l0-16.6c0-6.6,4.4-11.4,10.5-11.4c5.9,0,10.2,4.8,10.2,11.4c0,0.3,0.2,38.7,0.2,38.7l-12.8,42.1v45.5H45.2z"/>
			</g>
			<g>
				<path class="st64" d="M60.2,640.6c5.3,0,6.6,5.7,6.6,5.7s0.4,0.1,0.4,2.6l1.7,18.8v62.5h6.7v-31.8c0-5.4,4.7-9.7,10.1-9.7
					c5.4,0,10,4.3,10,9.7v36.3h5.6c0,0,0-21.3,0-21.4c0-5.4,2.2-13.1,10-13.1c8,0,10.1,7.7,10.1,13.1c0,0.1,0,27,0,27h6.4
					c0,0,0-18.2,0-18.3c0-5.4,3.5-9.7,8.8-9.7c5.2,0,8.6,4.3,8.6,9.7c0,0.1,0.2,38.4,0.2,38.4l-12.8,42.1v44H46.9l-0.6-31.7
					l-23.7-41.9l-8.7-33.4c0,0-5-26.6-5-26.6c0-3.7,2.7-5.7,6.1-5.7c1.5,0,3.2,0.4,4.8,1.2c4.9,2.4,8.6,8.4,11.2,15.5
					c2.7,7.5,12.2,29.6,12.2,29.6l6.8-6.1v-80.4l1-18.1c0-1.5,0-2,0.6-3.3c1.6-3.4,4.4-4.9,8.4-4.9
					C60.1,640.6,60.2,640.6,60.2,640.6 M60.2,637.2l-0.3,0h0c-6.7,0-9.9,3.7-11.3,6.8c-0.9,1.9-1,2.9-1,4.6l-1,18l0,0.1v0.1v78.9
					l-2.2,2c-2.9-6.8-8.4-19.8-10.3-25.1c-3.2-8.7-7.6-14.7-12.8-17.3c-2-1-4.2-1.6-6.3-1.6c-5.6,0-9.5,3.7-9.5,9
					c0,0.3,0,0.3,5.1,27.3l0,0.1l0,0.1l8.7,33.4l0.1,0.4l0.2,0.4L43,815.6l0.6,30.9l0.1,3.3h3.3h85.7h3.3v-3.3v-43.5l12.6-41.6
					l0.1-0.5l0-0.5c0,0-0.2-38.1-0.2-38.4c0-7.6-5-13.1-11.9-13.1c-6.1,0-10.7,4-11.9,10v-5.6c0-10-5.3-16.4-13.4-16.4
					c-6.5,0-10.5,4.1-12.3,9.4v-7.8c0-7.1-6.1-13-13.4-13c-7.3,0-13.4,6-13.4,13v-30.7v-0.2l0-0.2l-1.7-18.6c0-1,0-2.6-0.7-3.9
					C69,641.8,66,637.2,60.2,637.2L60.2,637.2z"/>
			</g>
		</g>
	</g>
	<g>
		<g>
			<g>
				<path class="st63" d="M59.3,2.3C70.2,2.3,79,11.1,79,22s-8.9,19.7-19.7,19.7c-10.9,0-19.7-8.9-19.7-19.7S48.4,2.3,59.3,2.3
					 M59.3,0.1c-12.1,0-22,9.8-22,22s9.8,22,22,22c12.1,0,22-9.8,22-22S71.4,0.1,59.3,0.1L59.3,0.1z"/>
			</g>
		</g>
		<g>
			<g>
				<path class="st8" d="M45.2,222.8l-0.6-32.9l-23.6-41.7l-8.8-33.6C7.2,87.7,7.2,87.7,7.2,87.5c0-4.4,3.1-7.3,7.8-7.3
					c1.8,0,3.8,0.5,5.6,1.4c6.1,3,9.9,10.6,12,16.4c2.2,6,8.8,21.6,11.2,27.3l4.5-4.1V24.4c0-2,0.3-3.6,1-5
					c1.9-4.1,5.9-6.6,10.4-6.6c4.5,0,8.4,2.5,10.4,6.6c0.3,0.5,0.6,1.6,0.6,5v78.7H74V73c0-6.2,5.4-11.4,11.7-11.4
					c6.4,0,11.7,5.2,11.7,11.4v34.6h2.2V87.9c0-6.8,3.1-14.8,11.7-14.8c8.7,0,11.7,7.6,11.7,14.8v25.3h3.1l0-16.6
					c0-6.6,4.4-11.4,10.5-11.4c5.9,0,10.2,4.8,10.2,11.4c0,0.3,0.2,38.7,0.2,38.7l-12.8,42.1v45.5H45.2z"/>
			</g>
			<g>
				<path class="st64" d="M59.7,14.5c4,0,7.3,2.3,8.8,5.7c0.2,0.5,0.4,1.8,0.4,4.3v80.4h6.7V73c0-5.4,4.7-9.7,10.1-9.7
					c5.4,0,10,4.3,10,9.7v36.3h5.6c0,0,0-21.3,0-21.4c0-5.4,2.2-13.1,10-13.1c8,0,10.1,7.7,10.1,13.1c0,0.1,0,27,0,27h6.4
					c0,0,0-18.2,0-18.3c0-5.4,3.5-9.7,8.8-9.7c5.2,0,8.6,4.3,8.6,9.7c0,0.1,0.2,38.4,0.2,38.4l-12.8,42.1v44H46.9l-0.6-31.7
					l-23.7-41.9l-8.7-33.4c0,0-5-26.6-5-26.6c0-3.7,2.7-5.7,6.1-5.7c1.5,0,3.2,0.4,4.8,1.2c4.9,2.4,8.6,8.4,11.2,15.5
					c2.7,7.5,12.2,29.6,12.2,29.6L50,122V24.4c0-1.5,0.2-3,0.8-4.3C52.4,16.8,55.7,14.5,59.7,14.5 M59.7,11.1c-5.2,0-9.7,2.9-12,7.6
					c-0.8,1.6-1.1,3.4-1.1,5.7v96l-2.2,2c-2.9-6.8-8.4-19.8-10.3-25.1c-3.2-8.7-7.6-14.7-12.8-17.3c-2-1-4.2-1.6-6.3-1.6
					c-5.6,0-9.5,3.7-9.5,9c0,0.3,0,0.3,5.1,27.3l0,0.1l0,0.1l8.7,33.4l0.1,0.4l0.2,0.4L43,190.3l0.6,30.9l0.1,3.3h3.3h85.7h3.3v-3.3
					v-43.5l12.6-41.6l0.1-0.5l0-0.5c0,0-0.2-38.1-0.2-38.4c0-7.6-5-13.1-11.9-13.1c-6.1,0-10.7,4-11.9,10v-5.6
					c0-10-5.3-16.4-13.4-16.4c-6.5,0-10.5,4.1-12.3,9.4V73c0-7.1-6.1-13-13.4-13c-7.3,0-13.4,6-13.4,13V24.4c0-3.7-0.4-4.9-0.7-5.7
					C69.4,14.1,64.8,11.1,59.7,11.1L59.7,11.1z"/>
			</g>
		</g>
	</g>
	<g>
		<path class="st62" d="M73.3,345.5l-6.7-41.8L17,306.3v0.1C6,307,0.1,314.7,0.1,324.1c0,9.8,7.8,17.8,17.6,17.8c0,0,0,0,0,0
			L73.3,345.5z"/>
		<g>
			<g>
				<path class="st63" d="M66.2,346.4c-11.5,0-20.9-9.4-20.9-20.9c0-11.5,9.4-20.9,20.9-20.9s20.9,9.4,20.9,20.9
					C87.1,337,77.7,346.4,66.2,346.4z"/>
			</g>
			<g>
				<g>
					<path class="st63" d="M66.2,305.6c11,0,19.9,8.9,19.9,19.9s-8.9,19.9-19.9,19.9s-19.9-8.9-19.9-19.9S55.2,305.6,66.2,305.6
						 M66.2,303.5c-12.1,0-22,9.8-22,22s9.8,22,22,22c12.1,0,22-9.8,22-22S78.3,303.5,66.2,303.5L66.2,303.5z"/>
				</g>
			</g>
		</g>
		<g>
			<g>
				<path class="st8" d="M51,527.3l-0.6-32.9l-23.6-41.7l-8.8-33.6C13,392.2,13,392.2,13,392c0-4.4,3.1-7.3,7.8-7.3
					c1.8,0,3.8,0.5,5.6,1.4c6.1,3,9.9,10.6,12,16.4c2.2,6,8.8,21.6,11.2,27.3l4.5-4.1V329c0-2,0.3-3.6,1-5c1.9-4.1,5.9-6.6,10.4-6.6
					c4.5,0,8.4,2.5,10.4,6.6c0.3,0.5,0.6,1.6,0.6,5v78.7h3.3v-30.1c0-6.2,5.4-11.4,11.7-11.4c6.4,0,11.7,5.2,11.7,11.4v34.6h2.2
					v-19.7c0-6.8,3.1-14.8,11.7-14.8c8.7,0,11.7,7.6,11.7,14.8v25.3h3.1l0-16.6c0-6.6,4.4-11.4,10.5-11.4c5.9,0,10.2,4.8,10.2,11.4
					c0,0.3,0.2,38.7,0.2,38.7l-12.8,42.1v45.5H51z"/>
			</g>
			<g>
				<path class="st64" d="M65.5,319c4,0,7.3,2.3,8.8,5.7c0.2,0.5,0.4,1.8,0.4,4.3v80.4h6.7v-31.8c0-5.4,4.7-9.7,10.1-9.7
					c5.4,0,10,4.3,10,9.7v36.3h5.6c0,0,0-21.3,0-21.4c0-5.4,2.2-13.1,10-13.1c8,0,10.1,7.7,10.1,13.1c0,0.1,0,27,0,27h6.4
					c0,0,0-18.2,0-18.3c0-5.4,3.5-9.7,8.8-9.7c5.2,0,8.6,4.3,8.6,9.7c0,0.1,0.2,38.4,0.2,38.4l-12.8,42.1v44H52.7l-0.6-31.7
					L28.4,452l-8.7-33.4c0,0-5-26.6-5-26.6c0-3.7,2.7-5.7,6.1-5.7c1.5,0,3.2,0.4,4.8,1.2c4.9,2.4,8.6,8.4,11.2,15.5
					c2.7,7.5,12.2,29.6,12.2,29.6l6.8-6.1V329c0-1.5,0.2-3,0.8-4.3C58.2,321.3,61.5,319,65.5,319 M65.5,315.7c-5.2,0-9.7,2.9-12,7.6
					c-0.8,1.6-1.1,3.4-1.1,5.7v96l-2.2,2c-2.9-6.8-8.4-19.8-10.3-25.1c-3.2-8.7-7.6-14.7-12.8-17.3c-2-1-4.2-1.6-6.3-1.6
					c-5.6,0-9.5,3.7-9.5,9c0,0.3,0,0.3,5.1,27.3l0,0.1l0,0.1l8.7,33.4l0.1,0.4l0.2,0.4l23.3,41.1l0.6,30.9l0.1,3.3h3.3h85.7h3.3
					v-3.3v-43.5l12.6-41.6l0.1-0.5l0-0.5c0,0-0.2-38.1-0.2-38.4c0-7.6-5-13.1-11.9-13.1c-6.1,0-10.7,4-11.9,10v-5.6
					c0-10-5.3-16.4-13.4-16.4c-6.5,0-10.5,4.1-12.3,9.4v-7.8c0-7.1-6.1-13-13.4-13c-7.3,0-13.4,6-13.4,13V329c0-3.7-0.4-4.9-0.7-5.7
					C75.2,318.6,70.6,315.7,65.5,315.7L65.5,315.7z"/>
			</g>
		</g>
	</g>
</g>
<g>
	<g>
		<g>
			<path class="st62" d="M682.1,406.3l3.7-23.7c0,0,1.5-11.2-10.3-14.1c-12.4-3.3-15.7,9.1-15.7,9.1l-10,19L682.1,406.3z"/>
		</g>
		<g>
			<path class="st62" d="M702.9,309.4l-19.4,32.5c0,0-5.3,10.7,5.5,17.7c11.3,7.6,18.9-3.9,18.9-3.9l23.5-25.8L702.9,309.4z"/>
		</g>
		<g>
			<g>
				<path class="st63" d="M665.4,419.6c-2.7,0-5.5-0.7-7.9-2c-7.9-4.4-10.8-14.3-6.4-22.2c2.9-5.2,8.4-8.5,14.4-8.5
					c2.7,0,5.5,0.7,7.9,2c3.8,2.1,6.6,5.6,7.8,9.8c1.2,4.2,0.7,8.6-1.4,12.5C676.9,416.3,671.4,419.6,665.4,419.6z"/>
			</g>
			<g>
				<g>
					<path class="st63" d="M665.5,387.6L665.5,387.6c2.6,0,5.2,0.7,7.5,1.9c3.6,2,6.3,5.3,7.4,9.3c1.2,4,0.7,8.2-1.3,11.8
						c-2.7,5-8,8.1-13.6,8.1c-2.6,0-5.2-0.7-7.5-1.9c-3.6-2-6.3-5.3-7.4-9.3c-1.2-4-0.7-8.2,1.3-11.8
						C654.6,390.7,659.8,387.6,665.5,387.6 M665.5,386c-6.1,0-11.9,3.2-15.1,8.9c-4.6,8.3-1.5,18.8,6.8,23.4
						c2.6,1.4,5.5,2.1,8.3,2.1c6.1,0,11.9-3.2,15.1-8.9c4.6-8.3,1.5-18.8-6.8-23.4C671.1,386.7,668.3,386,665.5,386L665.5,386z"/>
				</g>
			</g>
		</g>
		<g>
			<g>
				<path class="st63" d="M716.5,337.2c-3.9,0-7.7-1.4-10.7-3.9c-3.5-2.9-5.6-6.9-6.1-11.4c-0.4-4.5,0.9-8.9,3.8-12.4
					c3.2-3.9,8-6.2,13.1-6.2c3.9,0,7.7,1.4,10.7,3.9c7.2,5.9,8.2,16.6,2.3,23.8C726.4,335,721.6,337.2,716.5,337.2z"/>
			</g>
			<g>
				<g>
					<path class="st63" d="M716.6,304.2L716.6,304.2c3.7,0,7.3,1.3,10.2,3.7c3.3,2.7,5.4,6.6,5.8,10.8c0.4,4.3-0.9,8.4-3.6,11.8
						c-3.1,3.7-7.6,5.8-12.4,5.8c-3.7,0-7.3-1.3-10.2-3.7c-3.3-2.7-5.4-6.6-5.8-10.8c-0.4-4.3,0.9-8.4,3.6-11.8
						C707.2,306.4,711.7,304.2,716.6,304.2 M716.6,302.5c-5.1,0-10.2,2.2-13.7,6.5c-6.2,7.6-5.2,18.8,2.4,25
						c3.3,2.7,7.3,4.1,11.3,4.1c5.1,0,10.2-2.2,13.7-6.5c6.2-7.6,5.2-18.8-2.4-25C724.5,303.9,720.5,302.5,716.6,302.5L716.6,302.5z
						"/>
				</g>
			</g>
		</g>
		<g>
			<g>
				<path class="st8" d="M702,527.3l-0.6-32.9l-23.5-41.5L664.1,425c-5.6-12.7-7-15.8-7.3-16.7l0,0c-0.9-3.2-0.2-6.9,1.9-9.6
					c1.6-2.2,3.9-3.4,6.2-3.4c1,0,2.1,0.3,3.1,0.7c5.2,2.6,13.4,13,13.7,13.5l18.5,20.8l5-4.5v-57l1.7-39.9c0-1.7,0.4-3.4,1.1-4.9
					c1.8-3.8,5.6-6,10.4-6c5.4,0,9.4,3,10.4,7.7c0.3,0.7,0.4,1.2,0.4,3.3l-1.7,38.4l0,40.3h3.3v-30.1c0-6.2,5.4-11.4,11.7-11.4
					c6.3,0,11.7,5.2,11.7,11.4v34.6h2.2v-19.7c0-6.8,3.1-14.8,11.7-14.8c8.7,0,11.7,7.6,11.7,14.8v25.3h3.1l0-16.6
					c0-6.6,4.4-11.4,10.5-11.4c5.9,0,10.2,4.8,10.2,11.4c0,0.3,0.2,38.7,0.2,38.7L791,481.8v45.5H702z"/>
			</g>
			<g>
				<path class="st64" d="M718.3,319.6c4,0,8,2,8.8,6.6c0.2,0.5,0.3,0.2,0.3,2.7l-1.7,38.3v42.1h6.7v-31.8c0-5.4,4.7-9.7,10.1-9.7
					c5.4,0,10,4.3,10,9.7v36.3h5.6c0,0,0-21.3,0-21.4c0-5.4,2.2-13.1,10-13.1c8,0,10.1,7.7,10.1,13.1c0,0.1,0,27,0,27h6.4
					c0,0,0-18.2,0-18.3c0-5.4,3.5-9.7,8.8-9.7c5.2,0,8.6,4.3,8.6,9.7c0,0.1,0.2,38.4,0.2,38.4l-12.8,42.1v44h-85.7l-0.6-31.7
					L679.4,452l-13.8-27.8c0,0-7.2-16.4-7.2-16.4c-1.4-5.1,2.2-10.9,6.5-10.9c0.8,0,1.5,0.2,2.3,0.6c4.9,2.4,13.1,13,13.1,13
					l19.7,22.1l6.8-6.1v-57.7l1.7-39.8c0-1.5,0.3-3,0.9-4.3C710.9,321.3,714.3,319.6,718.3,319.6 M718.3,316.3c-5.5,0-9.9,2.5-12,7
					c-0.8,1.7-1.2,3.6-1.3,5.6l-1.7,39.7l0,0.1v0.1V425l-3.2,2.9l-17.4-19.5c-1.2-1.5-8.9-11.2-14.2-13.9c-1.2-0.6-2.5-0.9-3.8-0.9
					c-2.8,0-5.6,1.5-7.5,4.1c-2.4,3.1-3.2,7.4-2.2,11.1l0.1,0c0.5,1.3,2,4.8,7.3,16.9l0,0.1l0,0.1l13.8,27.8l0,0.1l0,0.1l23.3,41.1
					l0.6,30.9l0.1,3.3h3.3h85.7h3.3v-3.3v-43.5l12.6-41.6l0.1-0.5l0-0.5c0,0-0.2-38.1-0.2-38.4c0-7.6-5-13.1-11.9-13.1
					c-6.1,0-10.7,4-11.9,10v-5.6c0-10-5.3-16.4-13.4-16.4c-6.5,0-10.5,4.1-12.3,9.4v-7.8c0-7.1-6.1-13-13.4-13
					c-7.3,0-13.4,6-13.4,13v-10.2l1.7-38.2l0-0.1V329c0-2,0-2.9-0.4-3.8C729.1,319.8,724.3,316.3,718.3,316.3L718.3,316.3z"/>
			</g>
		</g>
	</g>
	<g>
		<circle class="st63" cx="709" cy="22" r="22"/>
		<g>
			<g>
				<path class="st8" d="M695,221.6l-0.6-32.9L670.8,147l-8.8-33.6c-5.1-26.9-5.1-26.9-5.1-27.1c0-4.4,3.1-7.3,7.8-7.3
					c1.8,0,3.8,0.5,5.6,1.4c6.1,3,9.9,10.6,12,16.4c2.2,6,8.8,21.6,11.2,27.3l4.5-4.1V23.3c0-2,0.3-3.6,1-5
					c1.9-4.1,5.9-6.6,10.4-6.6c4.5,0,8.4,2.5,10.4,6.6c0.3,0.5,0.6,1.6,0.6,5V102h3.3V71.9c0-6.2,5.4-11.4,11.7-11.4
					c6.4,0,11.7,5.2,11.7,11.4v34.6h2.2V86.7c0-6.8,3.1-14.8,11.7-14.8c8.7,0,11.7,7.6,11.7,14.8V112h3.1l0-16.6
					c0-6.6,4.4-11.4,10.5-11.4c5.9,0,10.2,4.8,10.2,11.4c0,0.3,0.2,38.7,0.2,38.7L784,176.1v45.5H695z"/>
			</g>
			<g>
				<path class="st64" d="M709.4,13.3c4,0,7.3,2.3,8.8,5.7c0.2,0.5,0.4,1.8,0.4,4.3v80.4h6.7V71.9c0-5.4,4.7-9.7,10.1-9.7
					c5.4,0,10,4.3,10,9.7v36.3h5.6c0,0,0-21.3,0-21.4c0-5.4,2.2-13.1,10-13.1c8,0,10.1,7.7,10.1,13.1c0,0.1,0,27,0,27h6.4
					c0,0,0-18.2,0-18.3c0-5.4,3.5-9.7,8.8-9.7c5.2,0,8.6,4.3,8.6,9.7c0,0.1,0.2,38.4,0.2,38.4l-12.8,42.1v44h-85.7l-0.6-31.7
					l-23.7-41.9l-8.7-33.4c0,0-5-26.6-5-26.6c0-3.7,2.7-5.7,6.1-5.7c1.5,0,3.2,0.4,4.8,1.2c4.9,2.4,8.6,8.4,11.2,15.5
					c2.7,7.5,12.2,29.6,12.2,29.6l6.8-6.1V23.3c0-1.5,0.2-3,0.8-4.3C702.1,15.6,705.5,13.3,709.4,13.3 M709.4,10
					c-5.2,0-9.7,2.9-12,7.6c-0.8,1.6-1.1,3.4-1.1,5.7v96l-2.2,2c-2.9-6.8-8.4-19.8-10.3-25.1c-3.2-8.7-7.6-14.7-12.8-17.3
					c-2-1-4.2-1.6-6.3-1.6c-5.6,0-9.5,3.7-9.5,9c0,0.3,0,0.3,5.1,27.3l0,0.1l0,0.1l8.7,33.4l0.1,0.4l0.2,0.4l23.3,41.1l0.6,30.9
					l0.1,3.3h3.3h85.7h3.3v-3.3v-43.5l12.6-41.6l0.1-0.5l0-0.5c0,0-0.2-38.1-0.2-38.4c0-7.6-5-13.1-11.9-13.1c-6.1,0-10.7,4-11.9,10
					v-5.6c0-10-5.3-16.4-13.4-16.4c-6.5,0-10.5,4.1-12.3,9.4v-7.8c0-7.1-6.1-13-13.4-13c-7.3,0-13.4,6-13.4,13V23.3
					c0-3.7-0.4-4.9-0.7-5.7C719.1,12.9,714.6,10,709.4,10L709.4,10z"/>
			</g>
		</g>
	</g>
	<g>
		<g>
			<path class="st8" d="M798.6,679.7l19.1,14.8l4.9,40.7l-13.1,61.8l0.8,50.7l-77.7-0.6l1.6-31.7l16.1-11.2
				C750.1,804.3,799.2,678.4,798.6,679.7z"/>
			<path class="st65" d="M812.1,849.7l-81.7-0.7l1.7-34.6l16.4-11.4c15.5-39.7,43.7-112.1,47.7-122.7l-0.1-0.1l1.5-3.1l1.7,0.7
				c0.6,0.3,1,0.4,1.1,0.8l19,14.8l5,41.8l-13.2,61.9L812.1,849.7z M734.5,845.2l73.7,0.6l-0.8-48.9l13.1-61.7l-4.7-39.6l-16.3-12.7
				c-0.3,0.8-0.7,1.8-1.1,2.9c-1.3,3.4-3.2,8.3-5.5,14.1c-4.5,11.7-10.6,27.3-16.7,42.8C764.1,773.9,752,805,752,805l-0.2,0.6
				l-15.8,10.9L734.5,845.2z"/>
		</g>
		<g>
			<path class="st66" d="M699,800c6.7,0,12.1,5.4,12.1,12.1c0,6.7-5.4,12.1-12.1,12.1c-6.7,0-12.1-5.4-12.1-12.1
				C686.9,805.4,692.3,800,699,800L699,800z M699,799.1c7.2,0,13,5.8,13,13c0,7.2-5.8,13-13,13c-7.2,0-13-5.8-13-13
				C686,804.9,691.8,799.1,699,799.1L699,799.1z"/>
		</g>
		<g>
			
				<rect x="678.8" y="616" transform="matrix(0.9306 0.3661 -0.3661 0.9306 309.7565 -218.1688)" class="st8" width="102.8" height="183.4"/>
		</g>
		<g>
			<path class="st67" d="M818.2,636.6c3.6-9.1,0.3-19.4-8.8-23l-71.9-28.3c-9.1-3.6-20.9,0.8-24.5,9.9l-74.5,189.3
				c-3.6,9.1,2.6,18.3,11.7,21.9l74.9,29.5c9.1,3.6,15.1-0.8,18.7-9.9L818.2,636.6z M746.1,804.1c-0.6,1.4-2.1,2.1-3.5,1.5
				l-89.5-35.2c-1.4-0.6-2.1-2.1-1.5-3.5l60.5-153.7c0.6-1.4,2.1-2.1,3.5-1.5l89.5,35.2c1.4,0.6,2.1,2.1,1.5,3.5L746.1,804.1z"/>
		</g>
		<g>
			<g>
				<g>
					<path class="st66" d="M759.3,613l15.9,6.2c0.6,0.2,0.9,0.9,0.6,1.5l-0.1,0.4c-0.2,0.6-0.9,0.9-1.5,0.6l-15.9-6.2
						c-0.6-0.2-0.9-0.9-0.6-1.5l0.1-0.4C758.1,613.1,758.7,612.8,759.3,613L759.3,613z"/>
				</g>
				<g>
					<path class="st66" d="M753.1,610.7c0.6,0.2,0.9,0.9,0.7,1.6c-0.2,0.6-0.9,0.9-1.6,0.7c-0.6-0.2-0.9-0.9-0.7-1.6
						C751.8,610.8,752.5,610.5,753.1,610.7L753.1,610.7z"/>
				</g>
				<g>
					<path class="st66" d="M770.1,609c0.8,0.3,1.2,1.2,0.9,2.1c-0.3,0.8-1.2,1.2-2.1,0.9c-0.8-0.3-1.2-1.2-0.9-2.1
						C768.3,609,769.2,608.6,770.1,609L770.1,609z"/>
				</g>
				<g>
					<path class="st66" d="M759.3,613l15.9,6.2c0.6,0.2,0.9,0.9,0.6,1.5l-0.1,0.4c-0.2,0.6-0.9,0.9-1.5,0.6l-15.9-6.2
						c-0.6-0.2-0.9-0.9-0.6-1.5l0.1-0.4C758.1,613.1,758.7,612.8,759.3,613L759.3,613z"/>
				</g>
				<g>
					<path class="st66" d="M753.1,610.7c0.6,0.2,0.9,0.9,0.7,1.6c-0.2,0.6-0.9,0.9-1.6,0.7c-0.6-0.2-0.9-0.9-0.7-1.6
						C751.8,610.8,752.5,610.5,753.1,610.7L753.1,610.7z"/>
				</g>
				<g>
					<path class="st66" d="M770.1,609c0.8,0.3,1.2,1.2,0.9,2.1c-0.3,0.8-1.2,1.2-2.1,0.9c-0.8-0.3-1.2-1.2-0.9-2.1
						C768.3,609,769.2,608.6,770.1,609L770.1,609z"/>
				</g>
			</g>
			<g>
				<path class="st66" d="M696.6,795.6c5.3,2.1,8,8.1,5.9,13.5c-2.1,5.3-8.1,8-13.5,5.9c-5.3-2.1-8-8.1-5.9-13.5
					C685.3,796.1,691.3,793.5,696.6,795.6L696.6,795.6z M696.9,794.9c5.7,2.3,8.6,8.8,6.3,14.5c-2.3,5.7-8.8,8.6-14.5,6.3
					c-5.7-2.3-8.6-8.8-6.3-14.5C684.7,795.4,691.2,792.6,696.9,794.9L696.9,794.9z"/>
			</g>
		</g>
		<g>
			<path class="st8" d="M790.2,734.6l-32.3-38.2l-18.4-18.3c0,0-7.1-2.5-9.1,1.3c0,0-7.3,7.5,1.9,23.2l17.1,34.2l-1.5,13.4
				c0,0,0.9,29.3,19.9,45.5"/>
			<path class="st65" d="M766.4,797.2c-19.4-16.6-20.5-45.7-20.5-47l0-0.1l0-0.1l1.4-12.9l-16.8-33.7c-9.1-15.3-3-23.7-1.7-25.2
				c2.3-3.9,8.2-3.1,11.4-2l0.4,0.1l18.7,18.6l32.5,38.3l-3,2.5l-32.3-38.2l-17.9-17.9c-1.6-0.5-5.4-1.2-6.4,0.5l-0.3,0.4
				c-0.2,0.3-6.1,6.8,2.2,20.8l17.4,34.8l-1.5,13.9c0.1,2.1,1.8,29,19.2,44L766.4,797.2z"/>
		</g>
		<g>
			<path class="st68" d="M837,631.1l-4.2-1.4c5.9-18-7.8-23.8-8.4-24.1l1.7-4.1C826.2,601.5,844.2,608.9,837,631.1z"/>
		</g>
		<g>
			<path class="st68" d="M846.9,635.7l-4.3-1.4c4.1-12.9,3-23.6-3.3-31.8c-4.6-6.1-10.4-8.6-10.5-8.6l1.7-4.1
				C830.9,589.9,857.8,601.4,846.9,635.7z"/>
		</g>
		<g>
			<path class="st68" d="M627.6,813c-0.2-0.1-18.2-7.6-10.8-29.7l4.2,1.4c-6.1,18,7.6,23.9,8.2,24.2L627.6,813z"/>
		</g>
		<g>
			<path class="st68" d="M622.8,824.6c-0.3-0.1-27.1-11.8-15.9-46l4.2,1.4c-4.2,12.8-3.2,23.5,3,31.9c4.6,6.2,10.3,8.6,10.4,8.7
				L622.8,824.6z"/>
		</g>
	</g>
</g>
</svg>
