<svg id="Layer_1" data-name="Layer 1" xmlns="http://www.w3.org/2000/svg" viewBox="0 0 2000 750"><defs><style>.cls-1{fill:#dce6e6;}.cls-2,.cls-3{fill:#2f4f4f;}.cls-14,.cls-3,.cls-49,.cls-5,.cls-59,.cls-6{font-size:16px;}.cls-10,.cls-14,.cls-15,.cls-16,.cls-17,.cls-18,.cls-19,.cls-20,.cls-21,.cls-22,.cls-25,.cls-3,.cls-31,.cls-35,.cls-36,.cls-37,.cls-38,.cls-49,.cls-5,.cls-54,.cls-55,.cls-58,.cls-59,.cls-6,.cls-8{font-family:Noto Sans;}.cls-35,.cls-4,.cls-5,.cls-54,.cls-62{fill:#9ba6a3;}.cls-25,.cls-26,.cls-31,.cls-50,.cls-51,.cls-6,.cls-60{fill:#fff;}.cls-38,.cls-7{fill:#648282;}.cls-16,.cls-8{font-size:18px;}.cls-8{fill:#4d4d4d;}.cls-11,.cls-31,.cls-37,.cls-38,.cls-8{font-weight:700;}.cls-27,.cls-28,.cls-29,.cls-30,.cls-33,.cls-34,.cls-39,.cls-52,.cls-53,.cls-9{fill:none;}.cls-9{stroke:gray;}.cls-23,.cls-27,.cls-28,.cls-30,.cls-33,.cls-34,.cls-39,.cls-41,.cls-50,.cls-51,.cls-52,.cls-53,.cls-60,.cls-62,.cls-9{stroke-miterlimit:10;}.cls-10,.cls-12{font-size:20.25px;}.cls-10,.cls-12,.cls-14,.cls-15,.cls-16,.cls-17,.cls-18,.cls-19,.cls-20,.cls-21,.cls-64{fill:#3c3c3c;}.cls-12{font-family:Adagio_Sans;}.cls-13{font-family:Adagio;}.cls-15,.cls-36,.cls-37,.cls-38,.cls-58{font-size:14.22px;}.cls-17,.cls-22,.cls-25,.cls-54,.cls-55{font-size:12.64px;}.cls-18,.cls-31,.cls-35{font-size:11.23px;}.cls-19{font-size:22.78px;}.cls-20{font-size:25.63px;}.cls-21{font-size:28.83px;}.cls-22,.cls-23,.cls-24,.cls-36,.cls-37,.cls-49{fill:#143232;}.cls-23,.cls-30,.cls-33{stroke:#143232;}.cls-23,.cls-30,.cls-60{stroke-width:0.25px;}.cls-27,.cls-28,.cls-62{stroke:#fff;}.cls-27{stroke-width:1.05px;}.cls-28{stroke-width:1.02px;}.cls-32{fill:gray;}.cls-33,.cls-34,.cls-39,.cls-52,.cls-53{stroke-width:2px;}.cls-34{stroke:#648282;}.cls-39,.cls-50{stroke:#2f4f4f;}.cls-40{fill:#506e6e;}.cls-41,.cls-48{fill:#f8f8f8;}.cls-41,.cls-51,.cls-52{stroke:#9ba6a3;}.cls-42{letter-spacing:23px;}.cls-43{letter-spacing:17px;}.cls-44{white-space:pre;}.cls-45{letter-spacing:18px;}.cls-46{letter-spacing:12px;}.cls-47{letter-spacing:6px;}.cls-53{stroke:#009a78;}.cls-56{fill:#009a78;}.cls-57{fill:#142328;}.cls-58,.cls-59{fill:#666;}.cls-60{stroke:#363639;}.cls-61{fill:#e1e1e1;}.cls-63{fill:#e0eeee;}.cls-65{fill:#406060;}.cls-66{fill:#faa61d;}</style></defs><title>internal_component_library</title><rect class="cls-1" x="557.74" y="627.55" width="68.43" height="73.19"/><path class="cls-2" d="M1226.67,252.56v43H1118.18v-43h108.49m1-1H1117.18v45h110.49v-45h0Z"/><text class="cls-3" transform="translate(1147.02 280.07)">Default</text><path class="cls-4" d="M1360.73,252.56v43H1252.23v-43h108.49m1-1H1251.23v45h110.49v-45h0Z"/><text class="cls-5" transform="translate(1272.58 280.07)">Disabled</text><rect class="cls-2" x="1251.23" y="313.47" width="110.49" height="45"/><text class="cls-6" transform="translate(1276.18 342.14)">P<tspan x="9.68" y="0">r</tspan><tspan x="16.13" y="0">essed</tspan></text><rect class="cls-7" x="1117.18" y="313.47" width="110.49" height="45"/><text class="cls-6" transform="translate(1151.93 342.14)">H<tspan x="11.86" y="0">o</tspan><tspan x="21.38" y="0">ver</tspan></text><text class="cls-8" transform="translate(475.59 29.71)">T<tspan x="10.25" y="0">ypog</tspan><tspan x="54.41" y="0">r</tspan><tspan x="62.41" y="0">aphy</tspan></text><line class="cls-9" x1="476" y1="41.5" x2="760" y2="41.5"/><line class="cls-9" x1="1117" y1="232.5" x2="1452" y2="232.5"/><text class="cls-10" transform="translate(478.59 84.66)"><tspan class="cls-11">Noto Sans Bold</tspan><tspan x="0" y="28">Noto Sans Regular</tspan></text><text class="cls-12" transform="translate(478.59 149.46)"><tspan class="cls-11">Adoagio Sans Bold</tspan><tspan class="cls-13"><tspan x="0" y="28">Adoagio Sans Regular</tspan></tspan></text><text class="cls-14" transform="translate(557.51 437.18)">Pa<tspan x="18.66" y="0">r</tspan><tspan x="25.11" y="0">ag</tspan><tspan x="43.93" y="0">r</tspan><tspan x="50.38" y="0">aph</tspan></text><text class="cls-15" transform="translate(478.59 437.69)">1 em</text><text class="cls-16" transform="translate(556.51 398.07)">H5 Sub header</text><text class="cls-15" transform="translate(478.59 397.5)">1.414 em</text><text class="cls-10" transform="translate(555.51 357.8)">H4 Sub header</text><text class="cls-15" transform="translate(478.59 356.66)">1.999 em</text><text class="cls-17" transform="translate(555.51 510.88)">Captions, Smaller t<tspan x="111.19" y="0">e</tspan><tspan x="118.2" y="0">xt</tspan></text><text class="cls-15" transform="translate(478.59 511.08)">.5 em</text><text class="cls-18" transform="translate(555.51 544.81)">Captions, Smaller t<tspan x="98.8" y="0">e</tspan><tspan x="105.03" y="0">xt</tspan></text><text class="cls-15" transform="translate(478.59 546.08)">.354 em</text><text class="cls-15" transform="translate(555.51 474.2)">Sub Pa<tspan x="45.63" y="0">r</tspan><tspan x="51.37" y="0">ag</tspan><tspan x="68.1" y="0">r</tspan><tspan x="73.84" y="0">aph</tspan></text><text class="cls-15" transform="translate(478.59 473.3)">.707 em</text><text class="cls-19" transform="translate(555.51 316.62)">H3 Header</text><text class="cls-15" transform="translate(478.59 314.95)">2.827 em</text><text class="cls-20" transform="translate(555.51 274.18)">H2 Sub header</text><text class="cls-15" transform="translate(478.59 272.73)">3.998 em</text><text class="cls-21" transform="translate(555.51 231.87)">H1 Header</text><text class="cls-15" transform="translate(478.59 230.66)">5.653 em</text><text class="cls-8" transform="translate(480.14 603.71)">Hambu<tspan x="65.54" y="0">r</tspan><tspan x="73.63" y="0">ger Menu</tspan></text><line class="cls-9" x1="480" y1="615.5" x2="729" y2="615.5"/><text class="cls-8" transform="translate(1117.18 220.71)">Buttons</text><text class="cls-22" transform="translate(1362.66 449.82)">Delete <tspan x="-4.09" y="16">P</tspan><tspan x="3.56" y="16">r</tspan><tspan x="8.66" y="16">oduct</tspan></text><path class="cls-4" d="M1433.37,379V486H1119.3V379h314.08m1-1H1118.3V487h316.08V378h0Z"/><path class="cls-4" d="M1327.52,379V486h-103V379h103m1-1h-105V487h105V378h0Z"/><text class="cls-22" transform="translate(1157.01 451.29)">Save <tspan x="-9.52" y="16">P</tspan><tspan x="-1.87" y="16">r</tspan><tspan x="3.23" y="16">oduct</tspan></text><text class="cls-22" transform="translate(1264.7 452.34)">Edit <tspan x="-11.99" y="16">P</tspan><tspan x="-4.34" y="16">r</tspan><tspan x="0.75" y="16">oduct</tspan></text><g id="Layer_1-2" data-name="Layer 1"><path class="cls-23" d="M1173,413.45a3.45,3.45,0,1,0,3.45,3.45A3.46,3.46,0,0,0,1173,413.45Zm0,6.1a2.64,2.64,0,1,1,2.64-2.64A2.65,2.65,0,0,1,1173,419.55Z"/><path class="cls-23" d="M1181.28,400.26H1159v28h28V405.61Zm-15.41.81h14.31v8.32h-14.31v-8.32Zm20.33,26.35h-26.35V401.07h5.21v9.13H1181v-9.1l5.21,4.87v21.46Z"/></g><path class="cls-24" d="M1381.14,398.85a16.05,16.05,0,1,0,16.05,16.05A16.07,16.07,0,0,0,1381.14,398.85Zm0,30.85a14.79,14.79,0,1,1,14.79-14.79A14.81,14.81,0,0,1,1381.14,429.7Z"/><polygon class="cls-24" points="1385.74 409.26 1381.12 413.88 1376.51 409.26 1375.68 410.09 1380.29 414.71 1375.68 419.32 1376.51 420.15 1381.12 415.54 1385.74 420.15 1386.57 419.32 1381.95 414.71 1386.57 410.09 1385.74 409.26"/><path class="cls-24" d="M1290.25,404.7a4.45,4.45,0,0,0-1.53-3.15,5,5,0,0,0-3.5-1.59,2.81,2.81,0,0,0-2,.82l-20.1,20.1L1263,421l-1.25,7.53,7.46-1.33,18.2-18.2c0.07-.07.77-0.74,2-2A3.36,3.36,0,0,0,1290.25,404.7ZM1263,427.31l0.18-1.06,0.88,0.88Zm0.34-2.07,0.63-3.77h0a5.07,5.07,0,0,1,4.13,2.57,5.38,5.38,0,0,1,.63,2.25l-3.69.66Zm5.62-1.62a5.83,5.83,0,0,0-4.16-3l15.07-15.07,4.81,4.81-15.08,15.08A6.4,6.4,0,0,0,1269,423.62Zm11.55-18.71,1-1,4.81,4.81-1,1Zm8.21,1.41c-0.84.86-1.43,1.45-1.74,1.74l-4.81-4.81,1.78-1.78h0a1.82,1.82,0,0,1,1.29-.51,4,4,0,0,1,2.79,1.31,3.51,3.51,0,0,1,1.23,2.45A2.39,2.39,0,0,1,1288.71,406.32Z"/><text class="cls-22" transform="translate(1362.66 574.82)">Delete <tspan x="-4.09" y="16">P</tspan><tspan x="3.56" y="16">r</tspan><tspan x="8.66" y="16">oduct</tspan></text><path class="cls-4" d="M1433.37,502V609H1119.3V502h314.08m1-1H1118.3V610h316.08V501h0Z"/><rect class="cls-7" x="1223.52" y="501" width="105" height="109"/><text class="cls-22" transform="translate(1157.01 576.29)">Save <tspan x="-9.52" y="16">P</tspan><tspan x="-1.87" y="16">r</tspan><tspan x="3.23" y="16">oduct</tspan></text><text class="cls-25" transform="translate(1264.7 576.08)">Edit <tspan x="-11.99" y="16">P</tspan><tspan x="-4.35" y="16">r</tspan><tspan x="0.75" y="16">oduct</tspan></text><g id="Layer_1-3" data-name="Layer 1"><path class="cls-23" d="M1173,536.45a3.45,3.45,0,1,0,3.45,3.45A3.46,3.46,0,0,0,1173,536.45Zm0,6.1a2.64,2.64,0,1,1,2.64-2.64A2.65,2.65,0,0,1,1173,542.55Z"/><path class="cls-23" d="M1181.28,523.26H1159v28h28V528.61Zm-15.41.81h14.31v8.32h-14.31v-8.32Zm20.33,26.35h-26.35V524.07h5.21v9.13H1181v-9.1l5.21,4.87v21.46Z"/></g><path class="cls-24" d="M1381.14,521.85a16.05,16.05,0,1,0,16.05,16.05A16.07,16.07,0,0,0,1381.14,521.85Zm0,30.85a14.79,14.79,0,1,1,14.79-14.79A14.81,14.81,0,0,1,1381.14,552.7Z"/><polygon class="cls-24" points="1385.74 532.26 1381.12 536.88 1376.51 532.26 1375.68 533.09 1380.29 537.71 1375.68 542.32 1376.51 543.15 1381.12 538.54 1385.74 543.15 1386.57 542.32 1381.95 537.71 1386.57 533.09 1385.74 532.26"/><path class="cls-26" d="M1290.25,527.7a4.45,4.45,0,0,0-1.53-3.15,5,5,0,0,0-3.5-1.59,2.81,2.81,0,0,0-2,.82l-20.1,20.1L1263,544l-1.25,7.53,7.46-1.33,18.2-18.2c0.07-.07.77-0.74,2-2A3.36,3.36,0,0,0,1290.25,527.7ZM1263,550.31l0.18-1.06,0.88,0.88Zm0.34-2.07,0.63-3.77h0a5.07,5.07,0,0,1,4.13,2.57,5.38,5.38,0,0,1,.63,2.25l-3.69.66Zm5.62-1.62a5.83,5.83,0,0,0-4.16-3l15.07-15.07,4.81,4.81-15.08,15.08A6.4,6.4,0,0,0,1269,546.62Zm11.55-18.71,1-1,4.81,4.81-1,1Zm8.21,1.41c-0.84.86-1.43,1.45-1.74,1.74l-4.81-4.81,1.78-1.78h0a1.82,1.82,0,0,1,1.29-.51,4,4,0,0,1,2.79,1.31,3.51,3.51,0,0,1,1.23,2.45A2.39,2.39,0,0,1,1288.71,529.32Z"/><line class="cls-27" x1="1265.04" y1="578.5" x2="1287" y2="578.5"/><line class="cls-28" x1="1252.27" y1="598.5" x2="1299.2" y2="598.5"/><text class="cls-22" transform="translate(1362.66 699.82)">Delete <tspan x="-4.09" y="16">P</tspan><tspan x="3.56" y="16">r</tspan><tspan x="8.66" y="16">oduct</tspan></text><path class="cls-4" d="M1433.37,627V734H1119.3V627h314.08m1-1H1118.3V735h316.08V626h0Z"/><rect class="cls-2" x="1223.52" y="626" width="105" height="109"/><text class="cls-22" transform="translate(1157.01 701.29)">Save <tspan x="-9.52" y="16">P</tspan><tspan x="-1.87" y="16">r</tspan><tspan x="3.23" y="16">oduct</tspan></text><text class="cls-25" transform="translate(1264.7 701.08)">Edit <tspan x="-11.99" y="16">P</tspan><tspan x="-4.34" y="16">r</tspan><tspan x="0.75" y="16">oduct</tspan></text><g id="Layer_1-4" data-name="Layer 1"><path class="cls-23" d="M1173,661.45a3.45,3.45,0,1,0,3.45,3.45A3.46,3.46,0,0,0,1173,661.45Zm0,6.1a2.64,2.64,0,1,1,2.64-2.64A2.65,2.65,0,0,1,1173,667.55Z"/><path class="cls-23" d="M1181.28,648.26H1159v28h28V653.61Zm-15.41.81h14.31v8.32h-14.31v-8.32Zm20.33,26.35h-26.35V649.07h5.21v9.13H1181v-9.1l5.21,4.87v21.46Z"/></g><path class="cls-24" d="M1381.14,646.85a16.05,16.05,0,1,0,16.05,16.05A16.07,16.07,0,0,0,1381.14,646.85Zm0,30.85a14.79,14.79,0,1,1,14.79-14.79A14.81,14.81,0,0,1,1381.14,677.7Z"/><polygon class="cls-24" points="1385.74 657.26 1381.12 661.88 1376.51 657.26 1375.68 658.09 1380.29 662.71 1375.68 667.32 1376.51 668.15 1381.12 663.54 1385.74 668.15 1386.57 667.32 1381.95 662.71 1386.57 658.09 1385.74 657.26"/><path class="cls-26" d="M1290.25,652.7a4.45,4.45,0,0,0-1.53-3.15,5,5,0,0,0-3.5-1.59,2.81,2.81,0,0,0-2,.82l-20.1,20.1L1263,669l-1.25,7.53,7.46-1.33,18.2-18.2c0.07-.07.77-0.74,2-2A3.36,3.36,0,0,0,1290.25,652.7ZM1263,675.31l0.18-1.06,0.88,0.88Zm0.34-2.07,0.63-3.77h0a5.07,5.07,0,0,1,4.13,2.57,5.38,5.38,0,0,1,.63,2.25l-3.69.66Zm5.62-1.62a5.83,5.83,0,0,0-4.16-3l15.07-15.07,4.81,4.81-15.08,15.08A6.4,6.4,0,0,0,1269,671.62Zm11.55-18.71,1-1,4.81,4.81-1,1Zm8.21,1.41c-0.84.86-1.43,1.45-1.74,1.74l-4.81-4.81,1.78-1.78h0a1.82,1.82,0,0,1,1.29-.51,4,4,0,0,1,2.79,1.31,3.51,3.51,0,0,1,1.23,2.45A2.39,2.39,0,0,1,1288.71,654.32Z"/><line class="cls-27" x1="1265.04" y1="703.5" x2="1287" y2="703.5"/><line class="cls-27" x1="1253.58" y1="719" x2="1299.74" y2="719"/><rect class="cls-26" x="569.45" y="640.47" width="45" height="45"/><rect class="cls-24" x="578.7" y="652.67" width="26.51" height="2.9"/><rect class="cls-24" x="578.7" y="661.51" width="26.51" height="2.9"/><rect class="cls-24" x="578.7" y="670.36" width="26.51" height="2.9"/><rect class="cls-24" x="475.37" y="638.58" width="45" height="45"/><rect class="cls-26" x="484.61" y="650.79" width="26.51" height="2.9"/><rect class="cls-26" x="484.61" y="659.63" width="26.51" height="2.9"/><rect class="cls-26" x="484.61" y="668.47" width="26.51" height="2.9"/><path class="cls-24" d="M827.87,78.71V75.17c0-3.11-2.8-4.73-5.57-4.73s-5.57,1.62-5.57,4.73v3.54h-5.57v25.13h22.27V78.71h-5.57Zm-10.05-3.54c0-2.49,2.32-3.62,4.47-3.62s4.47,1.13,4.47,3.62v3.54h-8.93V75.17Zm14.5,27.55h-20V79.79h4.45v1.78h1.08V79.79h8.93v1.78h1.12V79.79h4.45v22.93Z"/><polygon class="cls-24" points="822.89 86.06 821.8 86.06 821.8 90.46 817.32 90.46 817.32 91.58 821.8 91.58 821.8 96.07 822.89 96.07 822.89 91.58 827.33 91.58 827.33 90.46 822.89 90.46 822.89 86.06"/><path class="cls-24" d="M950.79,102.58a15.44,15.44,0,1,1,15.44-15.44A15.46,15.46,0,0,1,950.79,102.58Zm0-29.66A14.22,14.22,0,1,0,965,87.14,14.24,14.24,0,0,0,950.79,72.92Z"/><polygon class="cls-24" points="954.88 93.08 949.79 88.56 949.79 75.85 951.01 75.85 951.01 88.02 955.68 92.18 954.88 93.08"/><g id="Layer_1-5" data-name="Layer 1"><path class="cls-24" d="M965,161.49a2.65,2.65,0,0,0-2.62,1.92h-17a2.65,2.65,0,0,0-2.62-1.92l-0.18,0-0.61-3.14h25.41l3.6-17.61h-32.7l-1-5H936.5v0h-5.84V137h5.5l4.47,21.32h0l0.68,3.5a2.74,2.74,0,0,0,1.39,5.13,2.83,2.83,0,0,0,2.74-2.41h16.78A2.82,2.82,0,0,0,965,167,2.75,2.75,0,1,0,965,161.49ZM947,147.39h6.67v4.48h-6Zm13.72,4.48h-5.88v-4.48h6.59Zm1.18,0,0.71-4.48h5.65l-0.92,4.48h-5.44Zm-0.29-5.65h-6.77v-4.3h7.45Zm-7.94,0h-6.85l-0.68-4.3h7.53v4.3Zm-7.85,1.17,0.71,4.48h-6l-0.94-4.48h6.2Zm2.69,9.62-0.63-4h5.79v4h-5.16Zm6.32-4h5.71l-0.63,4h-5.08v-4Zm6.26,4,0.63-4h5.38l-0.82,4h-5.19Zm7.4-10.79h-5.7l0.68-4.3h5.9ZM945,141.93l0.68,4.3h-6.26l-0.9-4.3H945ZM940.81,153h5.9l0.63,4h-5.69Zm3.33,11.62a1.5,1.5,0,0,1-1.44,1.13,1.52,1.52,0,0,1-1.52-1.52,1.56,1.56,0,0,1,1.52-1.52h0.07a1.58,1.58,0,0,1,1.46,1.5A2,2,0,0,1,944.14,164.62ZM965,165.75a1.52,1.52,0,0,1,0-3A1.52,1.52,0,1,1,965,165.75Z"/></g><rect class="cls-24" x="814.95" y="143.05" width="12.05" height="0.93"/><rect class="cls-24" x="814.95" y="155.91" width="9" height="0.97"/><rect class="cls-24" x="825.88" y="155.91" width="4.06" height="0.97"/><rect class="cls-24" x="814.95" y="147.87" width="9" height="0.97"/><rect class="cls-24" x="825.88" y="147.87" width="4.06" height="0.97"/><rect class="cls-24" x="814.95" y="151.89" width="9" height="0.97"/><rect class="cls-24" x="825.88" y="151.89" width="4.06" height="0.97"/><path class="cls-24" d="M828.81,134.7H810.66v33.35l3.28-2.24,2.56,2.24,3-2.24,3,2.24,3-2.24,2.86,2.24,2.53-2.24,3,2.24V140.17Zm4.08,5.76h-4.35V135.9Zm-4.47-4.71-0.07,0h0Zm2.52,28.86-2.58,2.24-2.86-2.24-3,2.24-3-2.24-3,2.24-2.58-2.24-2.28,1.47V135.71h15.91v5.14h0v0.57H833v24.66Z"/><path class="cls-24" d="M890,168a16.62,16.62,0,1,1,16.62-16.62A16.64,16.64,0,0,1,890,168Zm0-32.12a15.5,15.5,0,1,0,15.5,15.5A15.51,15.51,0,0,0,890,135.88Z"/><path class="cls-29" d="M890.13,142.11a7,7,0,0,0-7,6.6H897.1A7,7,0,0,0,890.13,142.11Z"/><path class="cls-24" d="M898.23,148.7a8.11,8.11,0,0,0-16.2,0H880.8L883,162.06h14l2.44-13.36h-1.23Zm-8.1-6.6a7,7,0,0,1,7,6.6H883.16A7,7,0,0,1,890.13,142.11Zm-8.11,7h0Zm14.07,11.82H884l-1.86-11.08h16Zm2.17-11.82h0Z"/><path class="cls-24" d="M890.13,141.89a1.45,1.45,0,1,1,1.45-1.45A1.45,1.45,0,0,1,890.13,141.89Zm0-2a0.56,0.56,0,1,0,.56.56A0.56,0.56,0,0,0,890.13,139.84Z"/><path class="cls-24" d="M882,81.27A2.25,2.25,0,1,1,884.24,79,2.26,2.26,0,0,1,882,81.27Zm0-3.48A1.22,1.22,0,1,0,883.2,79,1.22,1.22,0,0,0,882,77.79Z"/><path class="cls-24" d="M888.4,72.74l-0.15-.14H875.17V86.14l15,14.72h0l0.83,0.81,13.78-13.61Zm-12,12.95V73.79h11.5l15.28,14.27-12.22,12Z"/><text class="cls-8" transform="translate(799.14 29.71)">Iconog<tspan x="61.77" y="0">r</tspan><tspan x="69.77" y="0">aphy</tspan></text><line class="cls-9" x1="799.14" y1="42.51" x2="1045.14" y2="42.49"/><polygon class="cls-24" points="950.26 209.64 945.45 204.84 946.32 203.97 951.12 208.78 955.92 203.97 956.79 204.84 951.98 209.64 956.79 214.45 955.92 215.31 951.12 210.51 946.32 215.31 945.45 214.45 950.26 209.64"/><path class="cls-24" d="M934.43,209.85a16.72,16.72,0,1,1,16.71,16.71A16.74,16.74,0,0,1,934.43,209.85Zm16.71-15.4a15.4,15.4,0,1,0,15.4,15.4A15.42,15.42,0,0,0,951.14,194.45Z"/><path class="cls-24" d="M893.57,198.42l5.42,5.43,1.14-1.14-5.42-5.43Zm1.87-1.87,5.43,5.43c0.34-.33,1-1,2-2a2.65,2.65,0,0,0,.61-1.81,3.93,3.93,0,0,0-1.38-2.76,4.52,4.52,0,0,0-3.15-1.48,2,2,0,0,0-1.45.57h0ZM875,223.47l-1-1-0.2,1.2Zm6.25-1.88,17-17-5.42-5.42-17,17a6.59,6.59,0,0,1,4.69,3.37A7.16,7.16,0,0,1,881.25,221.59Zm23.31-23.41a3.79,3.79,0,0,1-.93,2.61c-1.37,1.41-2.16,2.16-2.24,2.24l-20.53,20.52-8.41,1.5,1.41-8.49,0.13-.13,22.66-22.67a3.23,3.23,0,0,1,2.24-.92,5.66,5.66,0,0,1,4,1.8A5.06,5.06,0,0,1,904.56,198.18Zm-25,21.8a5.72,5.72,0,0,0-4.66-2.9h0l-0.7,4.26,1.92,1.92,4.16-.74A6.22,6.22,0,0,0,879.57,220Z"/><path class="cls-24" d="M823,209.05a3.46,3.46,0,1,1-3.45,3.46A3.46,3.46,0,0,1,823,209.05Zm0,0.81a2.65,2.65,0,1,0,2.64,2.65A2.65,2.65,0,0,0,823,209.86Z"/><path class="cls-24" d="M830.94,205.8H815v-9.13h-5.21V223h26.34V201.56l-5.21-4.87v9.11ZM809,195.86h22.24l5.72,5.35v22.62H809v-28Zm6.83,0.81V205h14.3v-8.32h-14.3Z"/><path class="cls-30" d="M823,209.05a3.46,3.46,0,1,0,3.45,3.46A3.46,3.46,0,0,0,823,209.05Z"/><path class="cls-30" d="M823,215.15a2.65,2.65,0,1,1,2.64-2.64A2.64,2.64,0,0,1,823,215.15Z"/><polygon class="cls-30" points="831.24 195.86 809 195.86 809 223.83 836.96 223.83 836.96 201.21 831.24 195.86"/><rect class="cls-30" x="815.83" y="196.67" width="14.3" height="8.32"/><polygon class="cls-30" points="836.15 223.02 809.81 223.02 809.81 196.67 815.02 196.67 815.02 205.8 830.94 205.8 830.94 196.69 836.15 201.56 836.15 223.02"/><path class="cls-24" d="M821.83,320.93a13.15,13.15,0,0,0-10.09,21.59L821.83,354l10.09-11.49A13.15,13.15,0,0,0,821.83,320.93Zm0,19a5.86,5.86,0,1,1,5.86-5.86A5.86,5.86,0,0,1,821.83,339.94Z"/><path class="cls-24" d="M890,320.48a17,17,0,1,0,17,17A17,17,0,0,0,890,320.48Zm11.2,21.45a0.84,0.84,0,0,1-.5.53l-0.18,0-0.33.08a3,3,0,0,0-.63.4,1.53,1.53,0,0,0,.22.68,0.57,0.57,0,0,1,.2.4,0.58,0.58,0,0,1-.49.54,0.47,0.47,0,0,1,.11.29,0.49,0.49,0,0,1-.26.49l-0.28.15-0.25.14c0,0.09.05,0.25,0.13,0.55a1.09,1.09,0,0,1-.11.9,1.32,1.32,0,0,1-.91.49l-2.75.28c-0.16.51-.71,3.85-0.71,3.85l-0.09,0a15.32,15.32,0,0,1-7.51.23l-0.16,0,0.06-.16a35.73,35.73,0,0,0,1-5.1,0.82,0.82,0,0,1-.48.35l-0.19,0a0.63,0.63,0,0,1-.57-0.31,0.62,0.62,0,0,1,0-.54,0.25,0.25,0,0,1,.22-0.14l0.09,0a0.24,0.24,0,0,1,.13.31,0.55,0.55,0,0,0,0,.06,0.18,0.18,0,0,0,.15.06h0a1.48,1.48,0,0,0,.4-1.32c-3.6-.23-6.4-3.94-6.4-8.51,0-.1,0-0.55,0-0.68a2.85,2.85,0,0,1-1.28-.82c-1-1.09-1-2.87,0-4.75a3.61,3.61,0,0,1-.73-2.18,3.65,3.65,0,0,1,6.2-2.6,6.29,6.29,0,0,1,2.05-.37,3.25,3.25,0,0,1,2.52,1,2.89,2.89,0,0,1,.69,1.56l0.75,0c3.72,0,6.76,2.12,6.8,4.74a6.66,6.66,0,0,1,1.36,4.63l0,1.46a0.77,0.77,0,0,0,.23.06,0.33,0.33,0,0,0,.23-0.09l0.24-.18a0.93,0.93,0,0,1,.17.27,0.61,0.61,0,0,1-.25.35,0.91,0.91,0,0,1-.52.16h-0.13c0,0.11,0,.22,0,0.28L900.7,341a2.07,2.07,0,0,1,.25.28A0.78,0.78,0,0,1,901.17,341.93Z"/><polygon class="cls-24" points="886.91 346.45 886.91 346.45 886.91 346.45 886.91 346.45"/><path id="White" class="cls-24" d="M963.93,322.7H937.65a1.63,1.63,0,0,0-1.63,1.63v26.28a1.63,1.63,0,0,0,1.63,1.63H951.8V340.8h-3.85v-4.46h3.85v-3.29c0-3.82,2.33-5.89,5.74-5.89a31.59,31.59,0,0,1,3.44.18v4h-2.36c-1.85,0-2.21.88-2.21,2.17v2.85h4.42l-0.57,4.46H956.4v11.44h7.53a1.63,1.63,0,0,0,1.63-1.63V324.33A1.63,1.63,0,0,0,963.93,322.7Z"/><path id="twitter-icon" class="cls-24" d="M838.17,389.58a13,13,0,0,1-3.74,1,6.53,6.53,0,0,0,2.86-3.6,13,13,0,0,1-4.13,1.58,6.51,6.51,0,0,0-11.09,5.94,18.48,18.48,0,0,1-13.41-6.8,6.52,6.52,0,0,0,2,8.69,6.48,6.48,0,0,1-2.95-.81,6.52,6.52,0,0,0,5.22,6.46,6.52,6.52,0,0,1-2.94.11,6.51,6.51,0,0,0,6.08,4.52,13.09,13.09,0,0,1-9.64,2.7,18.42,18.42,0,0,0,10,2.92c12.08,0,18.91-10.21,18.5-19.36A13.22,13.22,0,0,0,838.17,389.58Z"/><path class="cls-24" d="M869,398.75a13.3,13.3,0,0,1,13.29-12.65,13.5,13.5,0,0,1,8.9,3.29,47.44,47.44,0,0,1-3.38,3.5c-3-2.09-7.34-2.69-10.37-.27a8.53,8.53,0,0,0-.36,13.3c4.05,3.68,11.71,1.85,12.83-3.78-2.54,0-5.08,0-7.62-.08,0-1.51,0-3,0-4.54,4.24,0,8.49,0,12.74,0,0.25,3.56-.22,7.36-2.41,10.3-3.32,4.66-10,6-15.16,4A13.34,13.34,0,0,1,869,398.75Z"/><path class="cls-24" d="M903.33,393.68h3.79c0,1.27,0,2.54,0,3.8l3.8,0v3.79l-3.8,0q0,1.91,0,3.8h-3.79c0-1.27,0-2.53,0-3.8l-3.8,0v-3.79l3.8,0Q903.31,395.58,903.33,393.68Z"/><g id="Layer_1-6" data-name="Layer 1"><polygon class="cls-24" points="944.73 288.4 943.05 286.78 955.3 274.06 943.05 261.16 944.75 259.56 958.53 274.07 944.73 288.4"/></g><g id="Layer_1-7" data-name="Layer 1"><polygon class="cls-24" points="898.43 274.07 884.64 288.39 881.52 285.38 892.44 274.05 881.51 262.55 884.65 259.57 898.43 274.07"/></g><g id="Layer_1-8" data-name="Layer 1"><path class="cls-24" d="M1033.05,163.17a2.65,2.65,0,0,0-2.62,1.92h-17a2.65,2.65,0,0,0-2.62-1.92l-0.18,0-0.61-3.14h25.41l3.6-17.61h-32.7l-1-5h-0.69v0h-5.84v1.28h5.5l4.47,21.32h0l0.68,3.5a2.74,2.74,0,0,0,1.39,5.13,2.83,2.83,0,0,0,2.74-2.41h16.78a2.82,2.82,0,0,0,2.74,2.41A2.75,2.75,0,1,0,1033.05,163.17Zm-17.94-14.09h6.67v4.48h-6Zm13.72,4.48h-5.88v-4.48h6.59Zm1.18,0,0.71-4.48h5.65l-0.92,4.48H1030Zm-0.29-5.65h-6.77v-4.3h7.45Zm-7.94,0h-6.85l-0.68-4.3h7.53v4.3Zm-7.85,1.17,0.71,4.48h-6l-0.94-4.48h6.2Zm2.69,9.62-0.63-4h5.79v4h-5.16Zm6.32-4h5.71l-0.63,4h-5.08v-4Zm6.26,4,0.63-4h5.38l-0.82,4h-5.19Zm7.4-10.79h-5.7l0.68-4.3h5.9Zm-23.53-4.3,0.68,4.3h-6.26l-0.9-4.3h6.49Zm-4.16,11.07h5.9l0.63,4h-5.69Zm3.33,11.62a1.5,1.5,0,0,1-1.44,1.13,1.52,1.52,0,0,1-1.52-1.52,1.56,1.56,0,0,1,1.52-1.52h0.07a1.58,1.58,0,0,1,1.46,1.5A2,2,0,0,1,1012.24,166.31Zm20.81,1.13a1.52,1.52,0,0,1,0-3A1.52,1.52,0,1,1,1033.05,167.44Z"/></g><path class="cls-24" d="M1022.45,152.18a9.36,9.36,0,1,1,9.36-9.36A9.37,9.37,0,0,1,1022.45,152.18Z"/><path class="cls-26" d="M1022.45,134.08a8.74,8.74,0,1,1-8.74,8.74,8.74,8.74,0,0,1,8.74-8.74m0-1.23a10,10,0,1,0,10,10,10,10,0,0,0-10-10h0Z"/><text class="cls-31" transform="translate(1019.56 147.06)">9</text><rect class="cls-24" x="1011.77" y="80.37" width="11.78" height="0.98"/><rect class="cls-24" x="1011.77" y="94.12" width="8.84" height="0.98"/><rect class="cls-24" x="1022.61" y="94.12" width="3.89" height="0.98"/><rect class="cls-24" x="1011.77" y="86.23" width="8.84" height="0.98"/><rect class="cls-24" x="1022.61" y="86.23" width="3.89" height="0.98"/><rect class="cls-24" x="1011.77" y="90.15" width="8.84" height="1.02"/><rect class="cls-24" x="1022.61" y="90.15" width="3.89" height="1.02"/><path class="cls-24" d="M1025.22,72.22h-17.72v32.62h22.77V77.55Zm4,5.63H1025V73.38Zm-4.38-4.64h0Zm4.48,29.68h0v1h-20.81v-1h0V73.2H1024v5h0v0.57h5.25v24.09Z"/><g id="Layer_1-9" data-name="Layer 1"><path class="cls-24" d="M1032.78,195.81v27.78H1005V195.81h27.78m1.3-1.3H1003.7v30.39h30.39V194.51h0Z"/><rect class="cls-24" x="1008.2" y="203.79" width="2.36" height="2.43"/><rect class="cls-24" x="1004.34" y="199.9" width="29.01" height="1.51"/><rect class="cls-24" x="1013.05" y="203.79" width="2.36" height="2.43"/><rect class="cls-24" x="1017.76" y="203.79" width="2.36" height="2.43"/><rect class="cls-24" x="1022.62" y="203.79" width="2.36" height="2.43"/><rect class="cls-24" x="1027.33" y="203.79" width="2.46" height="2.43"/><rect class="cls-24" x="1008.2" y="208.57" width="2.36" height="2.36"/><rect class="cls-24" x="1013.05" y="208.57" width="2.36" height="2.36"/><rect class="cls-24" x="1017.76" y="208.57" width="2.36" height="2.36"/><rect class="cls-24" x="1022.62" y="208.57" width="2.36" height="2.36"/><rect class="cls-24" x="1027.33" y="208.57" width="2.46" height="2.36"/><rect class="cls-24" x="1008.2" y="213.39" width="2.36" height="2.39"/><rect class="cls-24" x="1013.05" y="213.39" width="2.36" height="2.39"/><rect class="cls-24" x="1017.76" y="213.39" width="2.36" height="2.39"/><rect class="cls-24" x="1022.62" y="213.39" width="2.36" height="2.39"/><rect class="cls-24" x="1027.33" y="213.39" width="2.46" height="2.39"/><rect class="cls-24" x="1008.2" y="218.14" width="2.36" height="2.46"/><rect class="cls-24" x="1013.05" y="218.14" width="2.36" height="2.46"/><rect class="cls-24" x="1017.76" y="218.14" width="2.36" height="2.46"/><rect class="cls-24" x="1022.62" y="218.14" width="2.36" height="2.46"/><rect class="cls-24" x="1027.33" y="218.14" width="2.46" height="2.46"/></g><path class="cls-24" d="M1018.89,321.65a15.82,15.82,0,0,0-6.35,30.31,14,14,0,0,1,.28-3.63l2-8.62a6,6,0,0,1-.51-2.5c0-2.34,1.36-4.1,3.05-4.1a2.12,2.12,0,0,1,2.13,2.37c0,1.45-.93,3.61-1.4,5.61a2.45,2.45,0,0,0,2.5,3c3,0,5-3.85,5-8.41,0-3.47-2.34-6.06-6.58-6.06a7.5,7.5,0,0,0-7.79,7.58,4.56,4.56,0,0,0,1,3.1,0.77,0.77,0,0,1,.23.88c-0.08.29-.25,1-0.32,1.27a0.54,0.54,0,0,1-.79.4c-2.21-.9-3.24-3.32-3.24-6,0-4.49,3.79-9.88,11.31-9.88,6,0,10,4.37,10,9.06,0,6.21-3.45,10.84-8.54,10.84a4.54,4.54,0,0,1-3.86-2s-0.92,3.64-1.12,4.35a13.15,13.15,0,0,1-1.59,3.39A15.82,15.82,0,1,0,1018.89,321.65Z"/><g id="Layer_1-10" data-name="Layer 1"><polygon class="cls-24" points="1005.39 286.32 1018.63 261.64 1032.39 286.32 1005.39 286.32"/></g><polygon class="cls-24" points="819.86 273.98 819.86 273.98 819.86 273.98 819.86 273.98"/><rect class="cls-32" x="819.86" y="273.98"/><path class="cls-24" d="M822.27,279.61a5.8,5.8,0,1,1,5.8-5.8A5.8,5.8,0,0,1,822.27,279.61Zm0-10.39a4.59,4.59,0,1,0,4.59,4.59A4.6,4.6,0,0,0,822.27,269.22Z"/><path class="cls-24" d="M822.31,261c-11.52,0-20.87,13-20.87,13s9.34,13,20.87,13,20.87-13,20.87-13S833.83,261,822.31,261ZM803,274a42.58,42.58,0,0,1,5.39-5.6q1.09-.94,2.19-1.74a16.31,16.31,0,0,0,0,14.69q-1.08-.79-2.14-1.71A42.71,42.71,0,0,1,803,274Zm19.33,11.82a17.27,17.27,0,0,1-7.55-1.9q-0.85-.41-1.7-0.92a13.87,13.87,0,0,1-2.05-3.63,15.21,15.21,0,0,1,0-10.74,13.87,13.87,0,0,1,2.05-3.63q0.84-.49,1.68-0.9a16,16,0,0,1,15.13,0q0.85,0.42,1.71.92a13.87,13.87,0,0,1,2,3.63,15.21,15.21,0,0,1,0,10.74,13.87,13.87,0,0,1-2,3.63q-0.84.5-1.68,0.91A17.28,17.28,0,0,1,822.31,285.79Zm13.95-6.21q-1.09.94-2.18,1.74a16.31,16.31,0,0,0,0-14.69q1.07,0.79,2.14,1.7a42.71,42.71,0,0,1,5.43,5.64A42.58,42.58,0,0,1,836.25,279.58Z"/><text class="cls-8" transform="translate(1117.14 24.71)">T<tspan x="9.72" y="0">abs</tspan></text><line class="cls-9" x1="1117" y1="36.5" x2="1451" y2="36.5"/><text class="cls-8" transform="translate(1530.14 485.71)">Form Fields</text><line class="cls-9" x1="1530" y1="498.5" x2="1920" y2="498.5"/><line class="cls-33" x1="1195" y1="121" x2="1240" y2="121"/><line class="cls-34" x1="1274" y1="121" x2="1329" y2="121"/><line class="cls-33" x1="1196" y1="77" x2="1239" y2="77"/><text class="cls-35" transform="translate(1410 71.39)">Default</text><text class="cls-35" transform="translate(1410 116.39)">H<tspan x="8.33" y="0">o</tspan><tspan x="15.01" y="0">ver</tspan></text><text class="cls-36" transform="translate(1116.67 115.33)">W<tspan x="13.09" y="0">eek</tspan></text><text class="cls-37" transform="translate(1193.69 115.33)">Month</text><text class="cls-38" transform="translate(1272.87 115.33)">Quarter</text><text class="cls-36" transform="translate(1365.69 115.33)">Y<tspan x="7.7" y="0">ear</tspan></text><text class="cls-36" transform="translate(1116.67 71.33)">W<tspan x="13.09" y="0">eek</tspan></text><text class="cls-37" transform="translate(1193.69 71.33)">Month</text><text class="cls-36" transform="translate(1272.87 71.33)">Quarter</text><text class="cls-36" transform="translate(1365.69 71.33)">Y<tspan x="7.7" y="0">ear</tspan></text><text class="cls-36" transform="translate(1115.67 165.33)">W<tspan x="13.09" y="0">eek</tspan></text><text class="cls-36" transform="translate(1192.69 165.33)">Month</text><text class="cls-37" transform="translate(1271.87 165.33)">Quarter</text><text class="cls-36" transform="translate(1364.69 165.33)">Y<tspan x="7.7" y="0">ear</tspan></text><line class="cls-33" x1="1273" y1="171" x2="1328" y2="171"/><text class="cls-35" transform="translate(1409 166.39)">Selected</text><text class="cls-8" transform="translate(806 462.71)">Switch</text><line class="cls-9" x1="806" y1="474.5" x2="1045" y2="474.5"/><rect class="cls-2" x="806" y="501.61" width="112.14" height="46"/><text class="cls-6" transform="translate(844 529.52)">On</text><path class="cls-26" d="M908.38,547.11a6.51,6.51,0,0,1-6.5-6.5v-32a6.51,6.51,0,0,1,6.5-6.5h98.25v45H908.38Z"/><path class="cls-2" d="M1006.13,502.61v44H908.38a6,6,0,0,1-6-6v-32a6,6,0,0,1,6-6h97.75m1-1H908.38a7,7,0,0,0-7,7v32a7,7,0,0,0,7,7h98.75v-46h0Z"/><line class="cls-39" x1="947" y1="514" x2="947" y2="534"/><line class="cls-39" x1="955" y1="514" x2="955" y2="534"/><line class="cls-39" x1="963" y1="514" x2="963" y2="534"/><text class="cls-35" transform="translate(1015.59 547.15)">Default</text><rect class="cls-40" x="806.5" y="567.11" width="111.14" height="45"/><path class="cls-40" d="M917.14,567.61v44H807v-44H917.14m1-1H806v46H918.14v-46h0Z"/><text class="cls-6" transform="translate(844 594.52)">On</text><path class="cls-26" d="M908.38,612.11a6.51,6.51,0,0,1-6.5-6.5v-32a6.51,6.51,0,0,1,6.5-6.5h98.25v45H908.38Z"/><path class="cls-2" d="M1006.13,567.61v44H908.38a6,6,0,0,1-6-6v-32a6,6,0,0,1,6-6h97.75m1-1H908.38a7,7,0,0,0-7,7v32a7,7,0,0,0,7,7h98.75v-46h0Z"/><line class="cls-39" x1="946" y1="579" x2="946" y2="599"/><line class="cls-39" x1="954" y1="579" x2="954" y2="599"/><line class="cls-39" x1="962" y1="579" x2="962" y2="599"/><text class="cls-35" transform="translate(1015.59 610.7)">H<tspan x="8.33" y="0">o</tspan><tspan x="15.01" y="0">ver</tspan></text><rect class="cls-2" x="894.98" y="631.61" width="112.14" height="46"/><text class="cls-6" transform="translate(943.43 659.52)">Off</text><path class="cls-26" d="M805.93,677.11v-45h98.25a6.51,6.51,0,0,1,6.5,6.5v32a6.51,6.51,0,0,1-6.5,6.5H805.93Z"/><path class="cls-2" d="M904.18,632.61a6,6,0,0,1,6,6v32a6,6,0,0,1-6,6H806.43v-44h97.75m0-1H805.43v46h98.75a7,7,0,0,0,7-7v-32a7,7,0,0,0-7-7h0Z"/><line class="cls-39" x1="866" y1="644" x2="866" y2="664"/><line class="cls-39" x1="858" y1="644" x2="858" y2="664"/><line class="cls-39" x1="850" y1="644" x2="850" y2="664"/><text class="cls-35" transform="translate(1020.61 675.95)">Selected</text><rect class="cls-7" x="1870" y="305" width="40" height="40"/><rect class="cls-41" x="1674.5" y="99.5" width="274" height="89"/><path class="cls-4" d="M1909,345v38h-38V345h38m1-1h-40v40h40V344h0Z"/><path class="cls-4" d="M1870,345v38h-39V345h39m1-1h-41v40h41V344h0Z"/><path class="cls-4" d="M1948,345v38h-38V345h38m1-1h-40v40h40V344h0Z"/><path class="cls-4" d="M1830,345v38h-38V345h38m1-1h-40v40h40V344h0Z"/><path class="cls-4" d="M1791,345v38h-38V345h38m1-1h-40v40h40V344h0Z"/><path class="cls-4" d="M1713,345v38h-38V345h38m1-1h-40v40h40V344h0Z"/><path class="cls-4" d="M1752,345v38h-38V345h38m1-1h-40v40h40V344h0Z"/><path class="cls-4" d="M1909,267v38h-38V267h38m1-1h-40v40h40V266h0Z"/><path class="cls-4" d="M1948,267v38h-38V267h38m1-1h-40v40h40V266h0Z"/><path class="cls-4" d="M1830,267v38h-38V267h38m1-1h-40v40h40V266h0Z"/><path class="cls-4" d="M1870,267v38h-39V267h39m1-1h-41v40h41V266h0Z"/><path class="cls-4" d="M1791,267v38h-38V267h38m1-1h-40v40h40V266h0Z"/><path class="cls-4" d="M1713,267v38h-38V267h38m1-1h-40v40h40V266h0Z"/><path class="cls-4" d="M1752,267v38h-38V267h38m1-1h-40v40h40V266h0Z"/><path class="cls-4" d="M1948,306v38h-38V306h38m1-1h-40v40h40V305h0Z"/><path class="cls-4" d="M1830,306v38h-38V306h38m1-1h-40v40h40V305h0Z"/><path class="cls-4" d="M1870,306v38h-39V306h39m1-1h-41v40h41V305h0Z"/><path class="cls-4" d="M1791,306v38h-38V306h38m1-1h-40v40h40V305h0Z"/><path class="cls-4" d="M1713,306v38h-38V306h38m1-1h-40v40h40V305h0Z"/><path class="cls-4" d="M1752,306v38h-38V306h38m1-1h-40v40h40V305h0Z"/><path class="cls-4" d="M1909,189v38h-38V189h38m1-1h-40v40h40V188h0Z"/><path class="cls-4" d="M1948,189v38h-38V189h38m1-1h-40v40h40V188h0Z"/><path class="cls-4" d="M1830,189v38h-38V189h38m1-1h-40v40h40V188h0Z"/><path class="cls-4" d="M1870,189v38h-39V189h39m1-1h-41v40h41V188h0Z"/><path class="cls-4" d="M1791,189v38h-38V189h38m1-1h-40v40h40V188h0Z"/><path class="cls-4" d="M1713,189v38h-38V189h38m1-1h-40v40h40V188h0Z"/><path class="cls-4" d="M1752,189v38h-38V189h38m1-1h-40v40h40V188h0Z"/><path class="cls-4" d="M1909,228v38h-38V228h38m1-1h-40v40h40V227h0Z"/><path class="cls-4" d="M1948,228v38h-38V228h38m1-1h-40v40h40V227h0Z"/><path class="cls-4" d="M1830,228v38h-38V228h38m1-1h-40v40h40V227h0Z"/><path class="cls-4" d="M1870,228v38h-39V228h39m1-1h-41v40h41V227h0Z"/><path class="cls-4" d="M1791,228v38h-38V228h38m1-1h-40v40h40V227h0Z"/><path class="cls-4" d="M1713,228v38h-38V228h38m1-1h-40v40h40V227h0Z"/><path class="cls-4" d="M1752,228v38h-38V228h38m1-1h-40v40h40V227h0Z"/><text class="cls-14" transform="translate(1728.47 211.93)">1</text><text class="cls-14" transform="translate(1767.47 211.93)">2</text><text class="cls-14" transform="translate(1805.73 212.14)">3</text><text class="cls-14" transform="translate(1844.49 212.14)">4</text><text class="cls-14" transform="translate(1884.35 212.14)">5</text><text class="cls-14" transform="translate(1922.35 212.14)">6</text><text class="cls-14" transform="translate(1689.16 251.14)">7</text><text class="cls-14" transform="translate(1728.78 251.14)">8</text><text class="cls-14" transform="translate(1767.78 251.14)">9</text><text class="cls-14" transform="translate(1800.73 251.14)">10</text><text class="cls-14" transform="translate(1840.33 251.14)">11</text><text class="cls-14" transform="translate(1880.68 251.14)">12</text><text class="cls-14" transform="translate(1919.35 251.14)">13</text><text class="cls-14" transform="translate(1683.94 291.14)">14</text><text class="cls-14" transform="translate(1722.99 291.14)">15</text><text class="cls-14" transform="translate(1761.99 291.14)">16</text><text class="cls-14" transform="translate(1800.73 291.14)">17</text><text class="cls-14" transform="translate(1839.99 291.14)">18</text><text class="cls-14" transform="translate(1880.68 291.14)">19</text><text class="cls-14" transform="translate(1918.68 291.14)">20</text><text class="cls-14" transform="translate(1684.94 330.14)">21</text><text class="cls-14" transform="translate(1724.33 330.14)">22</text><text class="cls-14" transform="translate(1763.33 330.14)">23</text><text class="cls-14" transform="translate(1800.73 330.14)">24</text><text class="cls-14" transform="translate(1839.77 330.14)">25</text><text class="cls-14" transform="translate(1918.68 330.14)">27</text><text class="cls-14" transform="translate(1684.94 368.14)">28</text><text class="cls-14" transform="translate(1689.47 171.41)">S<tspan class="cls-42" x="8.78" y="0">	</tspan><tspan x="36" y="0">M</tspan><tspan class="cls-43" x="50.52" y="0">	</tspan><tspan class="cls-44" x="72" y="0"> T</tspan><tspan class="cls-45" x="85.05" y="0">	</tspan><tspan class="cls-44" x="108" y="0"> W</tspan><tspan class="cls-46" x="127.04" y="0">	</tspan><tspan class="cls-44" x="144" y="0"> TH</tspan><tspan class="cls-47" x="168.91" y="0">	</tspan><tspan class="cls-44" x="180" y="0">    F</tspan><tspan class="cls-47" x="204.93" y="0">	</tspan><tspan class="cls-44" x="216" y="0">    S</tspan></text><text class="cls-14" transform="translate(1753.7 134.41)">FEBR<tspan x="37.55" y="0">U</tspan><tspan x="49.17" y="0">ARY 2016</tspan></text><text class="cls-6" transform="translate(1880.68 330.14)">26</text><text class="cls-8" transform="translate(1529.14 24.71)">Calendar</text><line class="cls-9" x1="1529" y1="36.5" x2="1950" y2="36.5"/><rect class="cls-48" x="1529" y="55" width="146" height="45"/><path class="cls-4" d="M1674,55V99H1529V55h145m1-1H1528v46h147V54h0Z"/><rect class="cls-26" x="1674" y="55" width="229" height="44"/><path class="cls-4" d="M1903,55V99H1675V55h228m1-1H1674v46h230V54h0Z"/><text class="cls-14" transform="translate(1549.12 82.09)">Delivery Date</text><text class="cls-35" transform="translate(1625.25 321.55)">H<tspan x="8.33" y="0">o</tspan><tspan x="15.01" y="0">ver</tspan></text><text class="cls-35" transform="translate(1527.68 113.22)">Selected</text><rect class="cls-2" x="1902.67" y="54.09" width="46.17" height="46"/><g id="Layer_1-11" data-name="Layer 1"><path class="cls-26" d="M1940.09,63.11V90.89H1912.3V63.11h27.78m1.3-1.3H1911V92.19h30.39V61.81h0Z"/><rect class="cls-26" x="1915.5" y="71.09" width="2.36" height="2.43"/><rect class="cls-26" x="1911.64" y="67.2" width="29.01" height="1.51"/><rect class="cls-26" x="1920.36" y="71.09" width="2.36" height="2.43"/><rect class="cls-26" x="1925.07" y="71.09" width="2.36" height="2.43"/><rect class="cls-26" x="1929.92" y="71.09" width="2.36" height="2.43"/><rect class="cls-26" x="1934.64" y="71.09" width="2.46" height="2.43"/><rect class="cls-26" x="1915.5" y="75.87" width="2.36" height="2.36"/><rect class="cls-26" x="1920.36" y="75.87" width="2.36" height="2.36"/><rect class="cls-26" x="1925.07" y="75.87" width="2.36" height="2.36"/><rect class="cls-26" x="1929.92" y="75.87" width="2.36" height="2.36"/><rect class="cls-26" x="1934.64" y="75.87" width="2.46" height="2.36"/><rect class="cls-26" x="1915.5" y="80.69" width="2.36" height="2.39"/><rect class="cls-26" x="1920.36" y="80.69" width="2.36" height="2.39"/><rect class="cls-26" x="1925.07" y="80.69" width="2.36" height="2.39"/><rect class="cls-26" x="1929.92" y="80.69" width="2.36" height="2.39"/><rect class="cls-26" x="1934.64" y="80.69" width="2.46" height="2.39"/><rect class="cls-26" x="1915.5" y="85.44" width="2.36" height="2.46"/><rect class="cls-26" x="1920.36" y="85.44" width="2.36" height="2.46"/><rect class="cls-26" x="1925.07" y="85.44" width="2.36" height="2.46"/><rect class="cls-26" x="1929.92" y="85.44" width="2.36" height="2.46"/><rect class="cls-26" x="1934.64" y="85.44" width="2.46" height="2.46"/></g><rect class="cls-26" x="1674" y="396" width="229" height="44"/><path class="cls-4" d="M1903,396v44H1675V396h228m1-1H1674v46h230V395h0Z"/><rect class="cls-48" x="1529" y="396" width="146" height="45"/><path class="cls-4" d="M1674,396v44H1529V396h145m1-1H1528v46h147V395h0Z"/><text class="cls-14" transform="translate(1549.12 423.09)">Delivery Date</text><text class="cls-49" transform="translate(1688.76 424.05)">02/26/2016</text><rect class="cls-26" x="1903.17" y="395.5" width="45.16" height="44.99"/><path class="cls-2" d="M1947.83,396v44h-44.15V396h44.15m1-1h-46.17v46h46.17V395h0Z"/><g id="Layer_1-12" data-name="Layer 1"><path class="cls-24" d="M1939.75,404v27.78H1912V404h27.78m1.3-1.3h-30.39v30.39h30.39V402.72h0Z"/><rect class="cls-24" x="1915.17" y="412.01" width="2.36" height="2.43"/><rect class="cls-24" x="1911.31" y="408.12" width="29.01" height="1.51"/><rect class="cls-24" x="1920.02" y="412.01" width="2.36" height="2.43"/><rect class="cls-24" x="1924.73" y="412.01" width="2.36" height="2.43"/><rect class="cls-24" x="1929.59" y="412.01" width="2.36" height="2.43"/><rect class="cls-24" x="1934.3" y="412.01" width="2.46" height="2.43"/><rect class="cls-24" x="1915.17" y="416.79" width="2.36" height="2.36"/><rect class="cls-24" x="1920.02" y="416.79" width="2.36" height="2.36"/><rect class="cls-24" x="1924.73" y="416.79" width="2.36" height="2.36"/><rect class="cls-24" x="1929.59" y="416.79" width="2.36" height="2.36"/><rect class="cls-24" x="1934.3" y="416.79" width="2.46" height="2.36"/><rect class="cls-24" x="1915.17" y="421.61" width="2.36" height="2.39"/><rect class="cls-24" x="1920.02" y="421.61" width="2.36" height="2.39"/><rect class="cls-24" x="1924.73" y="421.61" width="2.36" height="2.39"/><rect class="cls-24" x="1929.59" y="421.61" width="2.36" height="2.39"/><rect class="cls-24" x="1934.3" y="421.61" width="2.46" height="2.39"/><rect class="cls-24" x="1915.17" y="426.35" width="2.36" height="2.46"/><rect class="cls-24" x="1920.02" y="426.35" width="2.36" height="2.46"/><rect class="cls-24" x="1924.73" y="426.35" width="2.36" height="2.46"/><rect class="cls-24" x="1929.59" y="426.35" width="2.36" height="2.46"/><rect class="cls-24" x="1934.3" y="426.35" width="2.46" height="2.46"/></g><circle class="cls-50" cx="1741.31" cy="676.5" r="6.31"/><circle class="cls-50" cx="1741.32" cy="707.55" r="6.31"/><circle class="cls-4" cx="1741.32" cy="707.55" r="4.41"/><circle class="cls-51" cx="1817.69" cy="707.55" r="6.31"/><rect class="cls-50" x="1530.73" y="697.81" width="12.18" height="12.18"/><polyline class="cls-52" points="1532.52 701.9 1537.44 706.81 1547.46 694.26"/><text class="cls-17" transform="translate(1553.63 676.78)">Item</text><rect class="cls-50" x="1530.73" y="666.55" width="12.18" height="12.18"/><text class="cls-17" transform="translate(1553.63 707.66)">H<tspan x="9.37" y="0">o</tspan><tspan x="16.89" y="0">ver</tspan></text><rect class="cls-50" x="1609.73" y="666.55" width="12.18" height="12.18"/><polyline class="cls-53" points="1611.52 670.64 1616.44 675.55 1626.46 663"/><text class="cls-17" transform="translate(1632.63 676.78)">Chec<tspan x="29" y="0">k</tspan><tspan x="35.62" y="0">ed</tspan></text><rect class="cls-51" x="1609.73" y="697.81" width="12.18" height="12.18"/><text class="cls-54" transform="translate(1632.63 708.66)">Disabled </text><text class="cls-17" transform="translate(1757.12 680.78)">Item</text><text class="cls-17" transform="translate(1757.12 710.78)">H<tspan x="9.37" y="0">o</tspan><tspan x="16.89" y="0">ver</tspan></text><text class="cls-55" transform="translate(1832.49 680.78)">Selected</text><text class="cls-54" transform="translate(1832.49 711.78)">Disabled </text><circle class="cls-50" cx="1819.15" cy="676.5" r="6.31"/><circle class="cls-56" cx="1819.15" cy="676.5" r="4.41"/><rect class="cls-26" x="1681" y="527" width="195" height="45"/><path class="cls-4" d="M1875,527v44H1681V527h194m1-1H1680v46h196V526h0Z"/><rect class="cls-48" x="1533" y="526" width="150" height="45"/><path class="cls-4" d="M1683,527v44H1533V527h150m1-1H1532v46h152V526h0Z"/><text class="cls-49" transform="translate(1551.12 554.41)">Duplicate f<tspan x="80.78" y="0">r</tspan><tspan x="87.23" y="0">om</tspan></text><rect class="cls-48" x="1531" y="591" width="243" height="45"/><path class="cls-4" d="M1773,592v44H1532V592h241m1-1H1531v46h243V591h0Z"/><rect class="cls-26" x="1653" y="591" width="130" height="45"/><path class="cls-4" d="M1782,592v44H1653V592h129m1-1H1652v46h131V591h0Z"/><text class="cls-14" transform="translate(1554.09 620.3)">Ing<tspan x="25.16" y="0">r</tspan><tspan x="31.61" y="0">edient</tspan></text><rect class="cls-26" x="1783" y="591" width="117" height="45"/><path class="cls-2" d="M1899,592v44H1783V592h116m1-1H1782v46h118V591h0Z"/><text class="cls-3" transform="translate(1825.99 618.41)">Add</text><rect class="cls-57" x="25.14" y="459.75" width="55" height="55"/><text class="cls-58" transform="translate(99.27 479.69)">HEX #902050<tspan x="0" y="20">RBG 144 32 80</tspan></text><text class="cls-8" transform="translate(25.14 29.71)">Color Swatches</text><text class="cls-59" transform="translate(238.61 72.68)">SE<tspan x="17.68" y="0">C</tspan><tspan x="27.63" y="0">ON</tspan><tspan x="52.28" y="0">D</tspan><tspan x="63.8" y="0">ARY</tspan></text><text class="cls-59" transform="translate(25.14 72.68)">PRIMARY</text><text class="cls-59" transform="translate(25.14 439.56)">TEXT &amp; <tspan x="56.09" y="0">BA</tspan><tspan x="76.41" y="0">C</tspan><tspan x="86.52" y="0">K</tspan><tspan x="96.27" y="0">GROUNDS</tspan></text><line class="cls-9" x1="25" y1="41.5" x2="444" y2="41.5"/><rect class="cls-60" x="25.14" y="617.08" width="55" height="55"/><text class="cls-58" transform="translate(99.27 637.01)">HEX #fffff<tspan x="0" y="20">RBG 255 255 255</tspan></text><rect class="cls-61" x="246.43" y="537.53" width="55" height="55"/><text class="cls-58" transform="translate(320.57 557.46)">HEX #e77a92<tspan x="0" y="20">RBG 231 122 146</tspan></text><rect class="cls-62" x="246.43" y="459.75" width="55" height="55"/><text class="cls-58" transform="translate(320.57 479.69)">HEX #e77a92<tspan x="0" y="20">RBG 231 122 146</tspan></text><rect class="cls-63" x="25.37" y="339.79" width="55" height="55"/><text class="cls-58" transform="translate(99.5 359.72)">HEX #f9e3e0<tspan class="cls-44"><tspan x="0" y="20">RBG 249 227  224</tspan></tspan></text><rect class="cls-64" x="25.14" y="537.53" width="55" height="55"/><text class="cls-58" transform="translate(97.27 557.46)">HEX #363639<tspan x="0" y="20">RBG 54 54 57</tspan></text><rect class="cls-65" x="27.14" y="99.96" width="55" height="55"/><text class="cls-58" transform="translate(99.27 119.9)">HEX #a62453<tspan x="0" y="20">RBG 136 36 83</tspan></text><rect class="cls-7" x="27.14" y="179.9" width="55" height="55"/><text class="cls-58" transform="translate(99.27 199.84)">HEX #a62453<tspan x="0" y="20">RBG 136 36 83</tspan></text><rect class="cls-1" x="26.14" y="259.85" width="55" height="55"/><text class="cls-58" transform="translate(98.27 279.78)">HEX #eb94a7<tspan x="0" y="20">RBG 235 148 167</tspan></text><rect class="cls-48" x="247.43" y="617.08" width="55" height="55"/><text class="cls-58" transform="translate(319.57 637.01)">HEX #fbf6f3<tspan x="0" y="20">RBG 251 246 243</tspan></text><rect class="cls-56" x="238.61" y="99.96" width="55" height="55"/><text class="cls-58" transform="translate(312.75 119.9)">HEX #e77a92<tspan x="0" y="20">RBG 231 122 146</tspan></text><rect class="cls-66" x="238.61" y="179.9" width="55" height="55"/><text class="cls-58" transform="translate(312.75 199.84)">HEX #f9e3e0<tspan class="cls-44"><tspan x="0" y="20">RBG 249 227  224</tspan></tspan></text></svg>